<svg width="146" height="145" viewBox="0 0 146 145" fill="none" xmlns="http://www.w3.org/2000/svg">
<path d="M140.524 9.42384C137.918 9.42384 135.804 7.31426 135.804 4.712C135.804 2.10974 137.918 0.000177077 140.524 0.000176963C143.131 0.000176849 145.244 2.10973 145.244 4.712C145.244 7.31426 143.131 9.42384 140.524 9.42384Z" fill="white"/>
<path d="M140.524 43.3176C137.918 43.3176 135.804 41.2081 135.804 38.6058C135.804 36.0035 137.918 33.894 140.524 33.894C143.131 33.894 145.244 36.0035 145.244 38.6058C145.244 41.2081 143.131 43.3176 140.524 43.3176Z" fill="white"/>
<path d="M140.524 77.2117C137.918 77.2117 135.804 75.1022 135.804 72.4999C135.804 69.8976 137.918 67.7881 140.524 67.7881C143.131 67.7881 145.244 69.8976 145.244 72.4999C145.244 75.1022 143.131 77.2117 140.524 77.2117Z" fill="white"/>
<path d="M140.524 111.106C137.918 111.106 135.804 108.996 135.804 106.394C135.804 103.792 137.918 101.682 140.524 101.682C143.131 101.682 145.244 103.792 145.244 106.394C145.244 108.996 143.131 111.106 140.524 111.106Z" fill="white"/>
<path d="M140.524 145C137.918 145 135.804 142.89 135.804 140.288C135.804 137.686 137.918 135.576 140.524 135.576C143.131 135.576 145.244 137.686 145.244 140.288C145.244 142.89 143.131 145 140.524 145Z" fill="white"/>
<path d="M106.573 9.42364C103.966 9.42364 101.853 7.31408 101.853 4.71182C101.853 2.10955 103.966 -4.54451e-06 106.573 -4.65845e-06C109.18 -4.77239e-06 111.293 2.10955 111.293 4.71182C111.293 7.31408 109.18 9.42364 106.573 9.42364Z" fill="white"/>
<path d="M106.573 43.3176C103.966 43.3176 101.853 41.2081 101.853 38.6058C101.853 36.0035 103.966 33.894 106.573 33.894C109.18 33.894 111.293 36.0035 111.293 38.6058C111.293 41.2081 109.18 43.3176 106.573 43.3176Z" fill="white"/>
<path d="M106.573 77.2118C103.966 77.2118 101.853 75.1023 101.853 72.5C101.853 69.8977 103.966 67.7882 106.573 67.7882C109.18 67.7882 111.293 69.8977 111.293 72.5C111.293 75.1023 109.18 77.2118 106.573 77.2118Z" fill="white"/>
<path d="M106.573 111.106C103.966 111.106 101.853 108.996 101.853 106.394C101.853 103.792 103.966 101.682 106.573 101.682C109.18 101.682 111.293 103.792 111.293 106.394C111.293 108.996 109.18 111.106 106.573 111.106Z" fill="white"/>
<path d="M106.573 145C103.966 145 101.853 142.89 101.853 140.288C101.853 137.686 103.966 135.576 106.573 135.576C109.18 135.576 111.293 137.686 111.293 140.288C111.293 142.89 109.18 145 106.573 145Z" fill="white"/>
<path d="M72.622 9.42364C70.0154 9.42364 67.9023 7.31408 67.9023 4.71182C67.9023 2.10956 70.0154 -3.06047e-06 72.622 -3.17441e-06C75.2287 -3.28835e-06 77.3418 2.10955 77.3418 4.71182C77.3418 7.31408 75.2287 9.42364 72.622 9.42364Z" fill="white"/>
<path d="M72.622 43.3176C70.0154 43.3176 67.9023 41.2081 67.9023 38.6058C67.9023 36.0035 70.0154 33.894 72.6221 33.894C75.2287 33.894 77.3418 36.0035 77.3418 38.6058C77.3418 41.2081 75.2287 43.3176 72.622 43.3176Z" fill="white"/>
<path d="M72.6221 77.2118C70.0154 77.2118 67.9023 75.1023 67.9023 72.5C67.9023 69.8977 70.0154 67.7882 72.6221 67.7882C75.2287 67.7882 77.3418 69.8977 77.3418 72.5C77.3418 75.1023 75.2287 77.2118 72.6221 77.2118Z" fill="white"/>
<path d="M72.6221 111.106C70.0154 111.106 67.9023 108.996 67.9023 106.394C67.9023 103.792 70.0154 101.682 72.6221 101.682C75.2287 101.682 77.3418 103.792 77.3418 106.394C77.3418 108.996 75.2287 111.106 72.6221 111.106Z" fill="white"/>
<path d="M72.6221 145C70.0154 145 67.9023 142.89 67.9023 140.288C67.9023 137.686 70.0154 135.576 72.6221 135.576C75.2287 135.576 77.3418 137.686 77.3418 140.288C77.3418 142.89 75.2287 145 72.6221 145Z" fill="white"/>
<path d="M38.6707 9.42364C36.064 9.42364 33.9509 7.31409 33.9509 4.71182C33.9509 2.10956 36.064 -1.57641e-06 38.6707 -1.69035e-06C41.2773 -1.80429e-06 43.3904 2.10956 43.3904 4.71182C43.3904 7.31409 41.2773 9.42364 38.6707 9.42364Z" fill="white"/>
<path d="M38.6707 43.3176C36.064 43.3176 33.9509 41.2081 33.9509 38.6058C33.9509 36.0035 36.064 33.894 38.6707 33.894C41.2773 33.894 43.3904 36.0035 43.3904 38.6058C43.3904 41.2081 41.2773 43.3176 38.6707 43.3176Z" fill="white"/>
<path d="M38.6707 77.2118C36.064 77.2118 33.9509 75.1023 33.9509 72.5C33.9509 69.8977 36.064 67.7882 38.6707 67.7882C41.2773 67.7882 43.3904 69.8977 43.3904 72.5C43.3904 75.1023 41.2773 77.2118 38.6707 77.2118Z" fill="white"/>
<path d="M38.6707 111.106C36.064 111.106 33.9509 108.996 33.9509 106.394C33.9509 103.792 36.064 101.682 38.6707 101.682C41.2773 101.682 43.3904 103.792 43.3904 106.394C43.3904 108.996 41.2773 111.106 38.6707 111.106Z" fill="white"/>
<path d="M38.6707 145C36.064 145 33.9509 142.89 33.9509 140.288C33.9509 137.686 36.064 135.576 38.6707 135.576C41.2773 135.576 43.3904 137.686 43.3904 140.288C43.3904 142.89 41.2773 145 38.6707 145Z" fill="white"/>
<path d="M4.71977 9.42364C2.11311 9.42364 -6.24632e-06 7.31409 -6.13219e-06 4.71182C-6.01806e-06 2.10956 2.11311 -9.23673e-08 4.71977 -2.06308e-07C7.32642 -3.20248e-07 9.43954 2.10956 9.43954 4.71182C9.43954 7.31409 7.32642 9.42364 4.71977 9.42364Z" fill="white"/>
<path d="M4.71977 43.3176C2.11311 43.3176 -4.76477e-06 41.2081 -4.65064e-06 38.6058C-4.53651e-06 36.0035 2.11311 33.894 4.71977 33.894C7.32642 33.894 9.43954 36.0035 9.43954 38.6058C9.43954 41.2081 7.32642 43.3176 4.71977 43.3176Z" fill="white"/>
<path d="M4.71978 77.2118C2.11313 77.2118 2.72344e-05 75.1023 2.73485e-05 72.5C2.74626e-05 69.8977 2.11313 67.7882 4.71978 67.7882C7.32644 67.7882 9.43956 69.8977 9.43956 72.5C9.43956 75.1023 7.32644 77.2118 4.71978 77.2118Z" fill="white"/>
<path d="M4.71979 111.106C2.11313 111.106 2.87159e-05 108.996 2.88301e-05 106.394C2.89442e-05 103.792 2.11313 101.682 4.71979 101.682C7.32644 101.682 9.43956 103.792 9.43956 106.394C9.43956 108.996 7.32644 111.106 4.71979 111.106Z" fill="white"/>
<path d="M4.71977 145C2.11312 145 -3.20093e-07 142.89 -2.05961e-07 140.288C-9.1829e-08 137.686 2.11312 135.576 4.71977 135.576C7.32643 135.576 9.43954 137.686 9.43954 140.288C9.43954 142.89 7.32643 145 4.71977 145Z" fill="white"/>
</svg>
