<svg width="101" height="315" viewBox="0 0 101 315" fill="none" xmlns="http://www.w3.org/2000/svg">
<path d="M-34.5762 4.71977C-34.5762 7.32643 -36.6857 9.43956 -39.288 9.43956C-41.8903 9.43956 -43.9998 7.32643 -43.9998 4.71977C-43.9998 2.11314 -41.8903 1.24919e-05 -39.288 1.22644e-05C-36.6857 1.20369e-05 -34.5762 2.11314 -34.5762 4.71977Z" fill="white"/>
<path d="M-0.682393 4.71977C-0.682392 7.32642 -2.79195 9.43955 -5.39422 9.43955C-7.99649 9.43955 -10.1061 7.32643 -10.1061 4.71977C-10.1061 2.11314 -7.99649 9.52877e-06 -5.39422 9.30128e-06C-2.79194 9.07378e-06 -0.682393 2.11314 -0.682393 4.71977Z" fill="white"/>
<path d="M33.2117 4.71976C33.2117 7.32642 31.1021 9.43955 28.4999 9.43955C25.8976 9.43955 23.788 7.32642 23.788 4.71976C23.788 2.11314 25.8976 6.56566e-06 28.4999 6.33816e-06C31.1021 6.11066e-06 33.2117 2.11313 33.2117 4.71976Z" fill="white"/>
<path d="M67.1058 4.71976C67.1058 7.32642 64.9962 9.43955 62.394 9.43955C59.7917 9.43955 57.6821 7.32642 57.6821 4.71976C57.6821 2.11313 59.7917 3.60254e-06 62.394 3.37505e-06C64.9962 3.14755e-06 67.1058 2.11313 67.1058 4.71976Z" fill="white"/>
<path d="M101 4.71976C101 7.32642 98.8904 9.43954 96.2881 9.43955C93.6859 9.43955 91.5763 7.32642 91.5763 4.71976C91.5763 2.11313 93.6859 6.39419e-07 96.2881 4.11921e-07C98.8904 1.84423e-07 101 2.11313 101 4.71976Z" fill="white"/>
<path d="M-34.5764 38.6712C-34.5764 41.2778 -36.6859 43.3909 -39.2882 43.3909C-41.8905 43.3909 -44 41.2778 -44 38.6712C-44 36.0645 -41.8905 33.9514 -39.2882 33.9514C-36.6859 33.9514 -34.5764 36.0645 -34.5764 38.6712Z" fill="white"/>
<path d="M-0.68239 38.6712C-0.682389 41.2778 -2.79195 43.3909 -5.39422 43.3909C-7.99649 43.3909 -10.106 41.2778 -10.106 38.6712C-10.1061 36.0645 -7.99649 33.9514 -5.39422 33.9514C-2.79195 33.9514 -0.68239 36.0645 -0.68239 38.6712Z" fill="white"/>
<path d="M33.2118 38.6711C33.2118 41.2778 31.1022 43.3909 28.5 43.3909C25.8977 43.3909 23.7881 41.2778 23.7881 38.6711C23.7881 36.0645 25.8977 33.9514 28.5 33.9514C31.1022 33.9514 33.2118 36.0645 33.2118 38.6711Z" fill="white"/>
<path d="M67.1058 38.6711C67.1058 41.2778 64.9962 43.3909 62.394 43.3909C59.7917 43.3909 57.6821 41.2778 57.6821 38.6711C57.6821 36.0645 59.7917 33.9514 62.394 33.9514C64.9962 33.9514 67.1058 36.0645 67.1058 38.6711Z" fill="white"/>
<path d="M101 38.6711C101 41.2778 98.8903 43.3909 96.288 43.3909C93.6858 43.3909 91.5762 41.2778 91.5762 38.6711C91.5762 36.0645 93.6858 33.9514 96.288 33.9514C98.8903 33.9514 101 36.0645 101 38.6711Z" fill="white"/>
<path d="M-34.5764 72.622C-34.5764 75.2286 -36.6859 77.3417 -39.2882 77.3417C-41.8905 77.3417 -44 75.2286 -44 72.622C-44 70.0153 -41.8905 67.9022 -39.2882 67.9022C-36.6859 67.9022 -34.5764 70.0153 -34.5764 72.622Z" fill="white"/>
<path d="M-0.682387 72.622C-0.682386 75.2286 -2.79194 77.3417 -5.39422 77.3417C-7.99649 77.3417 -10.106 75.2286 -10.106 72.622C-10.106 70.0153 -7.99649 67.9022 -5.39422 67.9022C-2.79195 67.9022 -0.682387 70.0153 -0.682387 72.622Z" fill="white"/>
<path d="M33.2118 72.622C33.2118 75.2286 31.1022 77.3417 28.5 77.3417C25.8977 77.3417 23.7881 75.2286 23.7881 72.622C23.7881 70.0153 25.8977 67.9022 28.5 67.9022C31.1022 67.9022 33.2118 70.0153 33.2118 72.622Z" fill="white"/>
<path d="M67.1058 72.622C67.1058 75.2286 64.9962 77.3417 62.394 77.3417C59.7917 77.3417 57.6821 75.2286 57.6821 72.622C57.6821 70.0153 59.7917 67.9022 62.394 67.9022C64.9962 67.9022 67.1058 70.0153 67.1058 72.622Z" fill="white"/>
<path d="M101 72.6219C101 75.2286 98.8903 77.3417 96.288 77.3417C93.6858 77.3417 91.5762 75.2286 91.5762 72.6219C91.5762 70.0153 93.6858 67.9022 96.288 67.9022C98.8903 67.9022 101 70.0153 101 72.6219Z" fill="white"/>
<path d="M-34.5764 106.573C-34.5764 109.18 -36.6859 111.293 -39.2882 111.293C-41.8905 111.293 -44 109.18 -44 106.573C-44 103.967 -41.8905 101.854 -39.2882 101.854C-36.6859 101.854 -34.5764 103.967 -34.5764 106.573Z" fill="white"/>
<path d="M-0.682384 106.573C-0.682383 109.18 -2.79194 111.293 -5.39421 111.293C-7.99649 111.293 -10.106 109.18 -10.106 106.573C-10.106 103.967 -7.99649 101.854 -5.39421 101.854C-2.79194 101.854 -0.682384 103.967 -0.682384 106.573Z" fill="white"/>
<path d="M33.2118 106.573C33.2118 109.18 31.1022 111.293 28.5 111.293C25.8977 111.293 23.7882 109.18 23.7882 106.573C23.7882 103.967 25.8977 101.854 28.5 101.854C31.1022 101.854 33.2118 103.967 33.2118 106.573Z" fill="white"/>
<path d="M67.1059 106.573C67.1059 109.18 64.9963 111.293 62.3941 111.293C59.7918 111.293 57.6822 109.18 57.6822 106.573C57.6822 103.967 59.7918 101.854 62.3941 101.854C64.9963 101.854 67.1059 103.967 67.1059 106.573Z" fill="white"/>
<path d="M101 106.573C101 109.18 98.8903 111.293 96.288 111.293C93.6858 111.293 91.5762 109.18 91.5762 106.573C91.5762 103.967 93.6858 101.854 96.288 101.854C98.8903 101.854 101 103.967 101 106.573Z" fill="white"/>
<path d="M-34.5764 140.524C-34.5764 143.131 -36.6859 145.244 -39.2882 145.244C-41.8905 145.244 -44 143.131 -44 140.524C-44 137.918 -41.8905 135.804 -39.2882 135.804C-36.6859 135.804 -34.5764 137.918 -34.5764 140.524Z" fill="white"/>
<path d="M-0.682373 140.524C-0.682373 143.131 -2.79194 145.244 -5.39421 145.244C-7.99648 145.244 -10.106 143.131 -10.106 140.524C-10.106 137.918 -7.99648 135.804 -5.3942 135.804C-2.79193 135.804 -0.682373 137.918 -0.682373 140.524Z" fill="white"/>
<path d="M33.2118 140.524C33.2118 143.131 31.1022 145.244 28.5 145.244C25.8977 145.244 23.7882 143.131 23.7882 140.524C23.7882 137.918 25.8977 135.804 28.5 135.804C31.1022 135.804 33.2118 137.918 33.2118 140.524Z" fill="white"/>
<path d="M67.1058 140.524C67.1058 143.131 64.9962 145.244 62.394 145.244C59.7917 145.244 57.6821 143.131 57.6821 140.524C57.6821 137.918 59.7917 135.804 62.394 135.804C64.9962 135.804 67.1058 137.918 67.1058 140.524Z" fill="white"/>
<path d="M101 140.524C101 143.131 98.8904 145.244 96.2881 145.244C93.6859 145.244 91.5763 143.131 91.5763 140.524C91.5763 137.918 93.6859 135.804 96.2881 135.804C98.8904 135.804 101 137.918 101 140.524Z" fill="white"/>
<path d="M-34.5764 174.476C-34.5764 177.082 -36.6859 179.195 -39.2882 179.195C-41.8905 179.195 -44 177.082 -44 174.476C-44 171.869 -41.8905 169.756 -39.2882 169.756C-36.6859 169.756 -34.5764 171.869 -34.5764 174.476Z" fill="white"/>
<path d="M-0.682378 174.476C-0.682377 177.082 -2.79194 179.195 -5.39421 179.195C-7.99648 179.195 -10.106 177.082 -10.106 174.476C-10.106 171.869 -7.99648 169.756 -5.39421 169.756C-2.79194 169.756 -0.682378 171.869 -0.682378 174.476Z" fill="white"/>
<path d="M33.2117 174.476C33.2117 177.082 31.1022 179.195 28.4999 179.195C25.8976 179.195 23.7881 177.082 23.7881 174.476C23.7881 171.869 25.8976 169.756 28.4999 169.756C31.1022 169.756 33.2117 171.869 33.2117 174.476Z" fill="white"/>
<path d="M67.1058 174.475C67.1058 177.082 64.9962 179.195 62.394 179.195C59.7917 179.195 57.6821 177.082 57.6821 174.475C57.6821 171.869 59.7917 169.756 62.394 169.756C64.9962 169.756 67.1058 171.869 67.1058 174.475Z" fill="white"/>
<path d="M101 174.476C101 177.082 98.8903 179.195 96.288 179.195C93.6858 179.195 91.5762 177.082 91.5762 174.476C91.5762 171.869 93.6858 169.756 96.288 169.756C98.8903 169.756 101 171.869 101 174.476Z" fill="white"/>
<path d="M-34.5764 208.427C-34.5764 211.034 -36.6859 213.147 -39.2882 213.147C-41.8905 213.147 -44 211.034 -44 208.427C-44 205.82 -41.8905 203.707 -39.2882 203.707C-36.6859 203.707 -34.5764 205.82 -34.5764 208.427Z" fill="white"/>
<path d="M-0.682375 208.427C-0.682375 211.034 -2.79193 213.147 -5.3942 213.147C-7.99648 213.147 -10.106 211.034 -10.106 208.427C-10.106 205.82 -7.99648 203.707 -5.39421 203.707C-2.79193 203.707 -0.682375 205.82 -0.682375 208.427Z" fill="white"/>
<path d="M33.2118 208.427C33.2118 211.034 31.1023 213.147 28.5 213.147C25.8977 213.147 23.7882 211.034 23.7882 208.427C23.7882 205.82 25.8977 203.707 28.5 203.707C31.1023 203.707 33.2118 205.82 33.2118 208.427Z" fill="white"/>
<path d="M67.1058 208.427C67.1058 211.034 64.9962 213.147 62.394 213.147C59.7917 213.147 57.6821 211.034 57.6821 208.427C57.6821 205.82 59.7917 203.707 62.394 203.707C64.9962 203.707 67.1058 205.82 67.1058 208.427Z" fill="white"/>
<path d="M101 208.427C101 211.034 98.8903 213.147 96.2881 213.147C93.6858 213.147 91.5762 211.034 91.5762 208.427C91.5762 205.82 93.6858 203.707 96.2881 203.707C98.8903 203.707 101 205.82 101 208.427Z" fill="white"/>
<path d="M-34.5764 242.378C-34.5764 244.985 -36.6859 247.098 -39.2882 247.098C-41.8905 247.098 -44 244.985 -44 242.378C-44 239.771 -41.8905 237.658 -39.2882 237.658C-36.6859 237.658 -34.5764 239.771 -34.5764 242.378Z" fill="white"/>
<path d="M-0.682372 242.378C-0.682372 244.985 -2.79193 247.098 -5.3942 247.098C-7.99647 247.098 -10.106 244.985 -10.106 242.378C-10.106 239.771 -7.99647 237.658 -5.3942 237.658C-2.79193 237.658 -0.682372 239.771 -0.682372 242.378Z" fill="white"/>
<path d="M33.2117 242.378C33.2117 244.985 31.1022 247.098 28.4999 247.098C25.8976 247.098 23.7881 244.985 23.7881 242.378C23.7881 239.771 25.8976 237.658 28.4999 237.658C31.1022 237.658 33.2117 239.771 33.2117 242.378Z" fill="white"/>
<path d="M67.1058 242.378C67.1058 244.985 64.9962 247.098 62.394 247.098C59.7917 247.098 57.6821 244.985 57.6821 242.378C57.6821 239.771 59.7917 237.658 62.394 237.658C64.9962 237.658 67.1058 239.771 67.1058 242.378Z" fill="white"/>
<path d="M101 242.378C101 244.985 98.8902 247.098 96.288 247.098C93.6857 247.098 91.5761 244.985 91.5761 242.378C91.5761 239.771 93.6857 237.658 96.288 237.658C98.8902 237.658 101 239.771 101 242.378Z" fill="white"/>
<path d="M-34.5764 276.329C-34.5764 278.936 -36.6859 281.049 -39.2882 281.049C-41.8905 281.049 -44 278.936 -44 276.329C-44 273.722 -41.8905 271.609 -39.2882 271.609C-36.6859 271.609 -34.5764 273.722 -34.5764 276.329Z" fill="white"/>
<path d="M-0.682361 276.329C-0.682361 278.936 -2.79193 281.049 -5.3942 281.049C-7.99647 281.049 -10.106 278.936 -10.106 276.329C-10.106 273.722 -7.99646 271.609 -5.39419 271.609C-2.79192 271.609 -0.682361 273.722 -0.682361 276.329Z" fill="white"/>
<path d="M33.2118 276.329C33.2118 278.936 31.1023 281.049 28.5 281.049C25.8977 281.049 23.7882 278.936 23.7882 276.329C23.7882 273.722 25.8977 271.609 28.5 271.609C31.1023 271.609 33.2118 273.722 33.2118 276.329Z" fill="white"/>
<path d="M67.1058 276.329C67.1058 278.936 64.9962 281.049 62.394 281.049C59.7917 281.049 57.6821 278.936 57.6821 276.329C57.6821 273.722 59.7917 271.609 62.394 271.609C64.9962 271.609 67.1058 273.722 67.1058 276.329Z" fill="white"/>
<path d="M101 276.329C101 278.935 98.8902 281.049 96.288 281.049C93.6857 281.049 91.5761 278.935 91.5761 276.329C91.5761 273.722 93.6857 271.609 96.288 271.609C98.8902 271.609 101 273.722 101 276.329Z" fill="white"/>
<path d="M-34.5764 310.28C-34.5764 312.887 -36.6859 315 -39.2882 315C-41.8905 315 -44 312.887 -44 310.28C-44 307.674 -41.8905 305.56 -39.2882 305.56C-36.6859 305.56 -34.5764 307.674 -34.5764 310.28Z" fill="white"/>
<path d="M-0.682366 310.28C-0.682366 312.887 -2.79192 315 -5.3942 315C-7.99647 315 -10.106 312.887 -10.106 310.28C-10.106 307.674 -7.99647 305.56 -5.3942 305.56C-2.79192 305.56 -0.682366 307.674 -0.682366 310.28Z" fill="white"/>
<path d="M33.2117 310.28C33.2117 312.887 31.1022 315 28.4999 315C25.8976 315 23.7881 312.887 23.7881 310.28C23.7881 307.674 25.8976 305.56 28.4999 305.56C31.1022 305.56 33.2117 307.674 33.2117 310.28Z" fill="white"/>
<path d="M67.1058 310.28C67.1058 312.887 64.9962 315 62.394 315C59.7917 315 57.6821 312.887 57.6821 310.28C57.6821 307.674 59.7917 305.56 62.394 305.56C64.9962 305.56 67.1058 307.674 67.1058 310.28Z" fill="white"/>
<path d="M101 310.28C101 312.887 98.8902 315 96.288 315C93.6857 315 91.5761 312.887 91.5761 310.28C91.5761 307.674 93.6857 305.56 96.288 305.56C98.8902 305.56 101 307.674 101 310.28Z" fill="white"/>
</svg>
