<svg width="321" height="64" viewBox="0 0 321 64" fill="none" xmlns="http://www.w3.org/2000/svg">
<path fill-rule="evenodd" clip-rule="evenodd" d="M0.440551 11.525C0.771965 11.156 1.24723 10.9449 1.74635 10.9449H12.8793C13.8031 10.9449 14.5671 11.6562 14.6225 12.568L15.3112 23.4427C15.3432 23.9695 15.0958 24.3975 14.6978 24.7492C14.2997 25.1008 13.7947 25.3375 13.2688 25.247C4.36252 23.7158 0.453009 16.5357 0.0122541 12.8754C-0.0467481 12.3855 0.109137 11.8939 0.440551 11.525Z" fill="url(#paint0_linear_476_352)"/>
<path fill-rule="evenodd" clip-rule="evenodd" d="M17.9837 2.12736C21.726 0.950198 26.2325 1.88195 29.9254 6.50645C29.9593 6.54891 29.9911 6.59292 30.0209 6.63833C31.1996 8.43917 32.2124 10.5637 33.1352 12.4994C33.2134 12.6635 33.2909 12.8262 33.3679 12.9872C34.3923 15.1308 35.2949 16.9418 36.2623 18.1681C37.1326 19.2715 37.5579 19.7017 38.3591 20.0537C39.297 20.4659 40.8165 20.7896 43.9738 21.176C58.9178 21.7049 64.7503 20.0111 67.4321 18.4665C68.5468 17.8245 69.1489 17.2019 69.7744 16.555C69.8891 16.4364 70.0046 16.3171 70.1241 16.1966C70.505 15.8127 70.9926 15.3542 71.6424 15.0143C72.3267 14.6563 73.084 14.4821 73.9595 14.4821C74.8058 14.4821 75.5303 15.082 75.6788 15.9057C78.8991 33.7692 73.93 45.5583 69.8595 50.5295C65.1937 56.2275 58.7934 58.9571 53.6779 60.2717C51.1084 60.932 48.8248 61.2456 47.1795 61.3945C46.3557 61.4691 45.6886 61.5027 45.2217 61.5176C44.9882 61.525 44.8044 61.5278 44.6759 61.5286C44.6255 61.529 44.5836 61.529 44.5504 61.5289C35.4951 62.1997 28.2373 57.8926 23.1998 52.6868C18.2322 47.5534 15.1804 41.2993 14.6124 37.462C10.3193 19.3902 11.1739 10.7985 11.3093 9.43738C11.3124 9.40604 11.3152 9.37854 11.3175 9.35484C11.472 7.75085 12.3107 6.2132 13.4548 4.98192C14.6128 3.73552 16.1798 2.69482 17.9837 2.12736Z" fill="url(#paint1_linear_476_352)"/>
<path d="M121.068 13.7436C123.978 13.7436 126.553 14.2129 128.791 15.1515C131.075 16.0454 133 17.3416 134.567 19.04C136.179 20.6937 137.411 22.6602 138.261 24.9397C139.112 27.1744 139.538 29.655 139.538 32.3814C139.538 35.7782 138.821 38.795 137.388 41.432C136 44.0243 134.075 46.0579 131.612 47.5329C129.15 49.0078 126.284 49.7453 123.015 49.7453C121.627 49.7453 120.306 49.5665 119.053 49.2089C117.844 48.8514 116.724 48.3374 115.695 47.667C114.709 46.9965 113.881 46.1697 113.209 45.1864H113.008V63.4889H102.598V32.3814C102.598 28.5823 103.359 25.2972 104.881 22.5262C106.404 19.7551 108.553 17.6097 111.329 16.0901C114.105 14.5258 117.351 13.7436 121.068 13.7436ZM121.068 22.7273C119.456 22.7273 118.045 23.1295 116.836 23.934C115.672 24.6939 114.777 25.7665 114.15 27.1521C113.523 28.4929 113.209 30.0125 113.209 31.7109C113.209 33.4093 113.523 34.929 114.15 36.2698C114.777 37.6106 115.672 38.6833 116.836 39.4878C118.045 40.2476 119.456 40.6275 121.068 40.6275C122.68 40.6275 124.068 40.2476 125.232 39.4878C126.396 38.6833 127.291 37.6106 127.918 36.2698C128.59 34.929 128.926 33.4093 128.926 31.7109C128.926 30.0125 128.59 28.4929 127.918 27.1521C127.291 25.7665 126.396 24.6939 125.232 23.934C124.068 23.1295 122.68 22.7273 121.068 22.7273Z" fill="#1A2D6B"/>
<path d="M145.696 48.9408V0H156.106V48.9408H145.696Z" fill="#1A2D6B"/>
<path d="M177.634 49.7453C174.59 49.7453 171.903 48.9631 169.575 47.3988C167.246 45.8345 165.433 43.7338 164.135 41.0968C162.836 38.4151 162.187 35.3982 162.187 32.0461C162.187 28.5599 162.948 25.4537 164.47 22.7273C165.993 19.9562 168.142 17.7662 170.918 16.1572C173.739 14.5481 177.052 13.7436 180.858 13.7436C184.709 13.7436 187.978 14.5481 190.664 16.1572C193.395 17.7215 195.478 19.8892 196.91 22.6602C198.388 25.3866 199.127 28.4482 199.127 31.845V48.9408H188.918V43.4433H188.649C188.022 44.6501 187.216 45.7451 186.231 46.7284C185.246 47.667 184.037 48.4044 182.605 48.9408C181.216 49.4771 179.56 49.7453 177.634 49.7453ZM180.724 40.7616C182.291 40.7616 183.657 40.3817 184.821 39.6219C186.03 38.8174 186.948 37.7224 187.575 36.3368C188.201 34.9513 188.515 33.4093 188.515 31.7109C188.515 30.0572 188.201 28.56 187.575 27.2191C186.948 25.8783 186.03 24.8279 184.821 24.0681C183.657 23.2636 182.291 22.8614 180.724 22.8614C179.112 22.8614 177.702 23.2636 176.493 24.0681C175.284 24.8279 174.366 25.8783 173.739 27.2191C173.112 28.56 172.799 30.0572 172.799 31.7109C172.799 33.4093 173.112 34.9513 173.739 36.3368C174.366 37.7224 175.284 38.8174 176.493 39.6219C177.702 40.3817 179.112 40.7616 180.724 40.7616Z" fill="#1A2D6B"/>
<path d="M219.852 49.7453C217.793 49.7453 215.912 49.2089 214.211 48.1363C212.509 47.0636 211.345 45.611 210.718 43.7785L200.912 14.5481H212.33L219.248 39.0856C219.337 39.2644 219.427 39.3984 219.517 39.4878C219.651 39.5772 219.785 39.6219 219.92 39.6219C220.099 39.6219 220.233 39.5772 220.323 39.4878C220.457 39.3984 220.546 39.2644 220.591 39.0856L227.643 14.5481H238.792L228.987 43.7785C228.36 45.611 227.196 47.0636 225.494 48.1363C223.837 49.2089 221.957 49.7453 219.852 49.7453Z" fill="#1A2D6B"/>
<path d="M243.359 48.9408V29.1633C243.359 26.3029 244.053 23.7106 245.441 21.3864C246.829 19.0623 248.799 17.2075 251.351 15.8219C253.948 14.4364 257.015 13.7436 260.552 13.7436C264.134 13.7436 267.179 14.4364 269.687 15.8219C272.239 17.2075 274.187 19.0623 275.53 21.3864C276.873 23.7106 277.545 26.3029 277.545 29.1633V48.9408H267.134V29.4315C267.134 28.2247 266.843 27.1297 266.261 26.1464C265.679 25.1185 264.873 24.3139 263.843 23.7329C262.858 23.1072 261.739 22.7943 260.485 22.7943C259.187 22.7943 258.023 23.1072 256.993 23.7329C256.008 24.3139 255.224 25.1185 254.642 26.1464C254.06 27.1297 253.769 28.2247 253.769 29.4315V48.9408H243.359Z" fill="#1A2D6B"/>
<path d="M302.395 49.7453C298.858 49.7453 295.679 48.9631 292.858 47.3988C290.037 45.8345 287.798 43.6891 286.142 40.9627C284.53 38.2364 283.724 35.1748 283.724 31.778C283.724 28.3365 284.53 25.2749 286.142 22.5932C287.798 19.8668 290.037 17.7215 292.858 16.1572C295.679 14.5481 298.858 13.7436 302.395 13.7436C305.932 13.7436 309.089 14.5481 311.865 16.1572C314.686 17.7215 316.903 19.8668 318.514 22.5932C320.171 25.2749 320.999 28.3365 320.999 31.778C320.999 35.1748 320.171 38.2364 318.514 40.9627C316.903 43.6891 314.686 45.8345 311.865 47.3988C309.044 48.9631 305.888 49.7453 302.395 49.7453ZM302.395 40.6946C304.052 40.6946 305.485 40.2923 306.694 39.4878C307.903 38.6833 308.843 37.6106 309.515 36.2698C310.186 34.929 310.522 33.4093 310.522 31.7109C310.522 30.0572 310.186 28.56 309.515 27.2191C308.843 25.8783 307.903 24.8056 306.694 24.0011C305.485 23.1966 304.052 22.7943 302.395 22.7943C300.739 22.7943 299.283 23.1966 298.03 24.0011C296.821 24.8056 295.88 25.8783 295.209 27.2191C294.537 28.56 294.201 30.0572 294.201 31.7109C294.201 33.4093 294.537 34.929 295.209 36.2698C295.88 37.6106 296.821 38.6833 298.03 39.4878C299.283 40.2923 300.739 40.6946 302.395 40.6946Z" fill="#1A2D6B"/>
<defs>
<linearGradient id="paint0_linear_476_352" x1="17.015" y1="15.3781" x2="106.153" y2="86.2317" gradientUnits="userSpaceOnUse">
<stop stop-color="#2584F2"/>
<stop offset="0.864583" stop-color="#00FE9A" stop-opacity="0.42"/>
<stop offset="0.973958" stop-color="#15C2DE"/>
</linearGradient>
<linearGradient id="paint1_linear_476_352" x1="17.015" y1="15.3781" x2="106.153" y2="86.2317" gradientUnits="userSpaceOnUse">
<stop stop-color="#2584F2"/>
<stop offset="0.864583" stop-color="#00FE9A" stop-opacity="0.42"/>
<stop offset="0.973958" stop-color="#15C2DE"/>
</linearGradient>
</defs>
</svg>
