<svg width="57" height="45" viewBox="0 0 57 45" fill="none" xmlns="http://www.w3.org/2000/svg">
<path fill-rule="evenodd" clip-rule="evenodd" d="M0.326134 7.29959C0.571475 7.02645 0.923308 6.87015 1.2928 6.87015H9.53435C10.2183 6.87015 10.7839 7.39677 10.8248 8.07169L11.3347 16.1221C11.3583 16.5121 11.1752 16.829 10.8806 17.0893C10.5859 17.3496 10.212 17.5248 9.82269 17.4579C3.22952 16.3243 0.335357 11.0089 0.00907156 8.29932C-0.034607 7.9366 0.0807929 7.57273 0.326134 7.29959Z" fill="url(#paint0_linear_715_414)"/>
<path fill-rule="evenodd" clip-rule="evenodd" d="M13.3131 0.342657C16.0834 -0.528781 19.4195 0.160985 22.1534 3.58444C22.1785 3.61587 22.2021 3.64845 22.2241 3.68207C23.0966 5.01521 23.8464 6.58796 24.5295 8.02096C24.5874 8.1424 24.6448 8.26283 24.7018 8.38204C25.4602 9.96891 26.1283 11.3096 26.8445 12.2174C27.4888 13.0342 27.8036 13.3527 28.3967 13.6133C29.0911 13.9184 30.2159 14.1581 32.5532 14.4441C43.6161 14.8356 47.9338 13.5818 49.9191 12.4383C50.7443 11.963 51.19 11.5021 51.6531 11.0233C51.738 10.9355 51.8235 10.8471 51.912 10.7579C52.194 10.4737 52.5549 10.1343 53.0359 9.8827C53.5425 9.61769 54.1031 9.48873 54.7513 9.48873C55.3778 9.48873 55.9141 9.93281 56.024 10.5426C58.4079 23.7667 54.7294 32.494 51.716 36.1741C48.262 40.3923 43.524 42.413 39.737 43.3862C37.8349 43.875 36.1444 44.1071 34.9264 44.2174C34.3165 44.2726 33.8227 44.2974 33.477 44.3084C33.3041 44.3139 33.1681 44.316 33.073 44.3166C33.0357 44.3169 33.0046 44.3169 32.9801 44.3168C26.2766 44.8134 20.9037 41.6249 17.1745 37.7712C13.4971 33.971 11.2379 29.3411 10.8174 26.5005C7.63925 13.1221 8.27191 6.76178 8.37214 5.75416C8.37445 5.73097 8.37647 5.71061 8.37816 5.69307C8.49255 4.50565 9.11348 3.36735 9.96038 2.45585C10.8177 1.53316 11.9777 0.762743 13.3131 0.342657Z" fill="url(#paint1_linear_715_414)"/>
<defs>
<linearGradient id="paint0_linear_715_414" x1="12.596" y1="10.152" x2="78.584" y2="62.604" gradientUnits="userSpaceOnUse">
<stop stop-color="#2584F2"/>
<stop offset="0.864583" stop-color="#00FE9A" stop-opacity="0.42"/>
<stop offset="0.973958" stop-color="#15C2DE"/>
</linearGradient>
<linearGradient id="paint1_linear_715_414" x1="12.596" y1="10.152" x2="78.584" y2="62.604" gradientUnits="userSpaceOnUse">
<stop stop-color="#2584F2"/>
<stop offset="0.864583" stop-color="#00FE9A" stop-opacity="0.42"/>
<stop offset="0.973958" stop-color="#15C2DE"/>
</linearGradient>
</defs>
</svg>
