<svg width="223" height="197" viewBox="0 0 223 197" fill="none" xmlns="http://www.w3.org/2000/svg">
<path d="M103.06 125V115.512H106.452V114.328H98.3558V115.512H101.732V125H103.06ZM112.643 125.192C115.795 125.192 117.955 122.824 117.955 119.672C117.955 116.52 115.795 114.152 112.643 114.152C109.491 114.152 107.347 116.52 107.347 119.672C107.347 122.824 109.491 125.192 112.643 125.192ZM112.643 124.008C110.243 124.008 108.723 122.152 108.723 119.672C108.723 117.176 110.243 115.336 112.643 115.336C115.027 115.336 116.579 117.176 116.579 119.672C116.579 122.152 115.027 124.008 112.643 124.008ZM121.342 125V120.76H124.302C126.43 120.76 127.646 119.288 127.646 117.544C127.646 115.8 126.446 114.328 124.302 114.328H120.014V125H121.342ZM124.142 119.576H121.342V115.512H124.142C125.406 115.512 126.27 116.344 126.27 117.544C126.27 118.744 125.406 119.576 124.142 119.576ZM50.7869 140V129.328H49.4589V140H50.7869ZM57.2551 140V130.512H60.6471V129.328H52.5511V130.512H55.9271V140H57.2551ZM71.4167 140.192C74.5687 140.192 76.7287 137.824 76.7287 134.672C76.7287 131.52 74.5687 129.152 71.4167 129.152C68.2647 129.152 66.1207 131.52 66.1207 134.672C66.1207 137.824 68.2647 140.192 71.4167 140.192ZM71.4167 139.008C69.0167 139.008 67.4967 137.152 67.4967 134.672C67.4967 132.176 69.0167 130.336 71.4167 130.336C73.8007 130.336 75.3527 132.176 75.3527 134.672C75.3527 137.152 73.8007 139.008 71.4167 139.008ZM83.1391 140.192C86.0351 140.192 87.5071 138.496 87.5071 135.84V129.328H86.1631V135.824C86.1631 137.776 85.1071 139.008 83.1391 139.008C81.1711 139.008 80.1311 137.776 80.1311 135.824V129.328H78.7871V135.856C78.7871 138.48 80.2591 140.192 83.1391 140.192ZM93.9738 140V130.512H97.3658V129.328H89.2698V130.512H92.6458V140H93.9738ZM102.54 140.192C105.42 140.192 106.476 138.592 106.476 137.056C106.476 133.072 100.156 134.448 100.156 132.048C100.156 131.04 101.084 130.352 102.348 130.352C103.516 130.352 104.636 130.736 105.436 131.632L106.236 130.656C105.34 129.712 104.076 129.152 102.46 129.152C100.348 129.152 98.7799 130.368 98.7799 132.128C98.7799 135.936 105.1 134.4 105.1 137.152C105.1 137.984 104.492 139.008 102.588 139.008C101.084 139.008 99.9319 138.272 99.2439 137.472L98.4439 138.496C99.3239 139.488 100.7 140.192 102.54 140.192ZM113.323 140.192C116.475 140.192 118.635 137.824 118.635 134.672C118.635 131.52 116.475 129.152 113.323 129.152C110.171 129.152 108.027 131.52 108.027 134.672C108.027 137.824 110.171 140.192 113.323 140.192ZM113.323 139.008C110.923 139.008 109.403 137.152 109.403 134.672C109.403 132.176 110.923 130.336 113.323 130.336C115.707 130.336 117.259 132.176 117.259 134.672C117.259 137.152 115.707 139.008 113.323 139.008ZM125.045 140.192C127.941 140.192 129.413 138.496 129.413 135.84V129.328H128.069V135.824C128.069 137.776 127.013 139.008 125.045 139.008C123.077 139.008 122.037 137.776 122.037 135.824V129.328H120.693V135.856C120.693 138.48 122.165 140.192 125.045 140.192ZM139.656 140L136.776 135.648C138.232 135.52 139.56 134.464 139.56 132.544C139.56 130.576 138.152 129.328 136.2 129.328H131.912V140H133.24V135.76H135.384L138.088 140H139.656ZM136.04 134.592H133.24V130.512H136.04C137.304 130.512 138.184 131.328 138.184 132.544C138.184 133.744 137.304 134.592 136.04 134.592ZM146.718 140.192C148.606 140.192 149.886 139.296 150.782 138.064L149.662 137.456C149.054 138.352 147.934 139.008 146.718 139.008C144.382 139.008 142.606 137.2 142.606 134.672C142.606 132.112 144.382 130.336 146.718 130.336C147.934 130.336 149.054 130.976 149.662 131.888L150.766 131.264C149.918 130.048 148.606 129.152 146.718 129.152C143.646 129.152 141.23 131.392 141.23 134.672C141.23 137.952 143.646 140.192 146.718 140.192ZM153.803 140V129.328H152.475V140H153.803ZM165.135 140V129.328H163.807V137.664L157.663 129.328H156.303V140H157.631V131.488L163.855 140H165.135ZM172.687 140.208C174.431 140.208 175.887 139.472 176.879 138.352V134.512H171.887V135.696H175.567V137.856C175.023 138.4 173.967 139.008 172.687 139.008C170.351 139.008 168.575 137.2 168.575 134.672C168.575 132.112 170.351 130.336 172.687 130.336C173.967 130.336 175.103 130.944 175.775 131.808L176.831 131.136C175.903 129.984 174.591 129.152 172.687 129.152C169.647 129.152 167.199 131.344 167.199 134.672C167.199 137.984 169.647 140.208 172.687 140.208ZM81.2962 155.192C83.1842 155.192 84.4642 154.296 85.3602 153.064L84.2402 152.456C83.6322 153.352 82.5122 154.008 81.2962 154.008C78.9602 154.008 77.1842 152.2 77.1842 149.672C77.1842 147.112 78.9602 145.336 81.2962 145.336C82.5122 145.336 83.6322 145.976 84.2402 146.888L85.3442 146.264C84.4962 145.048 83.1842 144.152 81.2962 144.152C78.2242 144.152 75.8082 146.392 75.8082 149.672C75.8082 152.952 78.2242 155.192 81.2962 155.192ZM91.9167 155.192C95.0687 155.192 97.2287 152.824 97.2287 149.672C97.2287 146.52 95.0687 144.152 91.9167 144.152C88.7647 144.152 86.6207 146.52 86.6207 149.672C86.6207 152.824 88.7647 155.192 91.9167 155.192ZM91.9167 154.008C89.5167 154.008 87.9967 152.152 87.9967 149.672C87.9967 147.176 89.5167 145.336 91.9167 145.336C94.3007 145.336 95.8527 147.176 95.8527 149.672C95.8527 152.152 94.3007 154.008 91.9167 154.008ZM109.735 155V144.328H107.831L104.519 152.552L101.191 144.328H99.2871V155H100.615V146.024L104.247 155H104.791L108.407 146.024V155H109.735ZM113.553 155V150.76H116.513C118.641 150.76 119.857 149.288 119.857 147.544C119.857 145.8 118.657 144.328 116.513 144.328H112.225V155H113.553ZM116.353 149.576H113.553V145.512H116.353C117.617 145.512 118.481 146.344 118.481 147.544C118.481 148.744 117.617 149.576 116.353 149.576ZM129.517 155L125.229 144.328H123.581L119.277 155H120.797L121.741 152.616H127.053L127.997 155H129.517ZM126.669 151.448H122.141L124.397 145.688L126.669 151.448ZM139.744 155V144.328H138.416V152.664L132.272 144.328H130.912V155H132.24V146.488L138.464 155H139.744ZM146.672 155V150.488L150.864 144.328H149.312L146 149.288L142.688 144.328H141.136L145.344 150.488V155H146.672Z" fill="black"/>
<path d="M103.06 125V125.25H103.31V125H103.06ZM103.06 115.512V115.262H102.81V115.512H103.06ZM106.452 115.512V115.762H106.702V115.512H106.452ZM106.452 114.328H106.702V114.078H106.452V114.328ZM98.3558 114.328V114.078H98.1058V114.328H98.3558ZM98.3558 115.512H98.1058V115.762H98.3558V115.512ZM101.732 115.512H101.982V115.262H101.732V115.512ZM101.732 125H101.482V125.25H101.732V125ZM103.31 125V115.512H102.81V125H103.31ZM103.06 115.762H106.452V115.262H103.06V115.762ZM106.702 115.512V114.328H106.202V115.512H106.702ZM106.452 114.078H98.3558V114.578H106.452V114.078ZM98.1058 114.328V115.512H98.6058V114.328H98.1058ZM98.3558 115.762H101.732V115.262H98.3558V115.762ZM101.482 115.512V125H101.982V115.512H101.482ZM101.732 125.25H103.06V124.75H101.732V125.25ZM112.643 125.442C115.946 125.442 118.205 122.949 118.205 119.672H117.705C117.705 122.699 115.645 124.942 112.643 124.942V125.442ZM118.205 119.672C118.205 116.395 115.946 113.902 112.643 113.902V114.402C115.645 114.402 117.705 116.645 117.705 119.672H118.205ZM112.643 113.902C109.34 113.902 107.097 116.396 107.097 119.672H107.597C107.597 116.644 109.643 114.402 112.643 114.402V113.902ZM107.097 119.672C107.097 122.948 109.34 125.442 112.643 125.442V124.942C109.643 124.942 107.597 122.7 107.597 119.672H107.097ZM112.643 123.758C111.512 123.758 110.602 123.323 109.971 122.605C109.338 121.884 108.973 120.862 108.973 119.672H108.473C108.473 120.962 108.869 122.108 109.595 122.935C110.325 123.765 111.374 124.258 112.643 124.258V123.758ZM108.973 119.672C108.973 118.474 109.338 117.452 109.971 116.733C110.601 116.018 111.512 115.586 112.643 115.586V115.086C111.375 115.086 110.325 115.574 109.596 116.403C108.869 117.228 108.473 118.374 108.473 119.672H108.973ZM112.643 115.586C113.767 115.586 114.682 116.018 115.318 116.734C115.957 117.453 116.329 118.475 116.329 119.672H116.829C116.829 118.373 116.425 117.227 115.692 116.402C114.957 115.574 113.904 115.086 112.643 115.086V115.586ZM116.329 119.672C116.329 120.861 115.958 121.883 115.318 122.604C114.681 123.323 113.766 123.758 112.643 123.758V124.258C113.905 124.258 114.957 123.765 115.692 122.936C116.425 122.109 116.829 120.963 116.829 119.672H116.329ZM121.342 125V125.25H121.592V125H121.342ZM121.342 120.76V120.51H121.092V120.76H121.342ZM120.014 114.328V114.078H119.764V114.328H120.014ZM120.014 125H119.764V125.25H120.014V125ZM121.342 119.576H121.092V119.826H121.342V119.576ZM121.342 115.512V115.262H121.092V115.512H121.342ZM121.592 125V120.76H121.092V125H121.592ZM121.342 121.01H124.302V120.51H121.342V121.01ZM124.302 121.01C125.426 121.01 126.329 120.62 126.951 119.98C127.571 119.343 127.896 118.474 127.896 117.544H127.396C127.396 118.358 127.112 119.097 126.592 119.632C126.074 120.164 125.305 120.51 124.302 120.51V121.01ZM127.896 117.544C127.896 116.615 127.575 115.746 126.957 115.108C126.337 114.468 125.434 114.078 124.302 114.078V114.578C125.314 114.578 126.082 114.924 126.598 115.456C127.116 115.99 127.396 116.729 127.396 117.544H127.896ZM124.302 114.078H120.014V114.578H124.302V114.078ZM119.764 114.328V125H120.264V114.328H119.764ZM120.014 125.25H121.342V124.75H120.014V125.25ZM124.142 119.326H121.342V119.826H124.142V119.326ZM121.592 119.576V115.512H121.092V119.576H121.592ZM121.342 115.762H124.142V115.262H121.342V115.762ZM124.142 115.762C124.718 115.762 125.185 115.951 125.507 116.259C125.827 116.566 126.02 117.006 126.02 117.544H126.52C126.52 116.882 126.28 116.306 125.852 115.897C125.426 115.489 124.829 115.262 124.142 115.262V115.762ZM126.02 117.544C126.02 118.082 125.827 118.522 125.507 118.829C125.185 119.137 124.718 119.326 124.142 119.326V119.826C124.829 119.826 125.426 119.599 125.852 119.191C126.28 118.782 126.52 118.206 126.52 117.544H126.02ZM50.7869 140V140.25H51.0369V140H50.7869ZM50.7869 129.328H51.0369V129.078H50.7869V129.328ZM49.4589 129.328V129.078H49.2089V129.328H49.4589ZM49.4589 140H49.2089V140.25H49.4589V140ZM51.0369 140V129.328H50.5369V140H51.0369ZM50.7869 129.078H49.4589V129.578H50.7869V129.078ZM49.2089 129.328V140H49.7089V129.328H49.2089ZM49.4589 140.25H50.7869V139.75H49.4589V140.25ZM57.2551 140V140.25H57.5051V140H57.2551ZM57.2551 130.512V130.262H57.0051V130.512H57.2551ZM60.6471 130.512V130.762H60.8971V130.512H60.6471ZM60.6471 129.328H60.8971V129.078H60.6471V129.328ZM52.5511 129.328V129.078H52.3011V129.328H52.5511ZM52.5511 130.512H52.3011V130.762H52.5511V130.512ZM55.9271 130.512H56.1771V130.262H55.9271V130.512ZM55.9271 140H55.6771V140.25H55.9271V140ZM57.5051 140V130.512H57.0051V140H57.5051ZM57.2551 130.762H60.6471V130.262H57.2551V130.762ZM60.8971 130.512V129.328H60.3971V130.512H60.8971ZM60.6471 129.078H52.5511V129.578H60.6471V129.078ZM52.3011 129.328V130.512H52.8011V129.328H52.3011ZM52.5511 130.762H55.9271V130.262H52.5511V130.762ZM55.6771 130.512V140H56.1771V130.512H55.6771ZM55.9271 140.25H57.2551V139.75H55.9271V140.25ZM71.4167 140.442C74.7193 140.442 76.9787 137.949 76.9787 134.672H76.4787C76.4787 137.699 74.418 139.942 71.4167 139.942V140.442ZM76.9787 134.672C76.9787 131.395 74.7193 128.902 71.4167 128.902V129.402C74.418 129.402 76.4787 131.645 76.4787 134.672H76.9787ZM71.4167 128.902C68.113 128.902 65.8707 131.396 65.8707 134.672H66.3707C66.3707 131.644 68.4163 129.402 71.4167 129.402V128.902ZM65.8707 134.672C65.8707 137.948 68.113 140.442 71.4167 140.442V139.942C68.4163 139.942 66.3707 137.7 66.3707 134.672H65.8707ZM71.4167 138.758C70.2857 138.758 69.3752 138.323 68.7445 137.605C68.1111 136.884 67.7467 135.862 67.7467 134.672H67.2467C67.2467 135.962 67.6423 137.108 68.3689 137.935C69.0982 138.765 70.1476 139.258 71.4167 139.258V138.758ZM67.7467 134.672C67.7467 133.474 68.1113 132.452 68.7443 131.733C69.3746 131.018 70.2851 130.586 71.4167 130.586V130.086C70.1483 130.086 69.0988 130.574 68.3691 131.403C67.6421 132.228 67.2467 133.374 67.2467 134.672H67.7467ZM71.4167 130.586C72.5401 130.586 73.4551 131.018 74.0918 131.734C74.7309 132.453 75.1027 133.475 75.1027 134.672H75.6027C75.6027 133.373 75.1985 132.227 74.4656 131.402C73.7303 130.574 72.6773 130.086 71.4167 130.086V130.586ZM75.1027 134.672C75.1027 135.861 74.7311 136.883 74.0916 137.604C73.4545 138.323 72.5394 138.758 71.4167 138.758V139.258C72.678 139.258 73.7308 138.765 74.4658 137.936C75.1983 137.109 75.6027 135.963 75.6027 134.672H75.1027ZM87.5071 129.328H87.7571V129.078H87.5071V129.328ZM86.1631 129.328V129.078H85.9131V129.328H86.1631ZM80.1311 129.328H80.3811V129.078H80.1311V129.328ZM78.7871 129.328V129.078H78.5371V129.328H78.7871ZM83.1391 140.442C84.6361 140.442 85.8002 140.002 86.5889 139.186C87.3762 138.37 87.7571 137.213 87.7571 135.84H87.2571C87.2571 137.123 86.902 138.142 86.2292 138.838C85.558 139.534 84.538 139.942 83.1391 139.942V140.442ZM87.7571 135.84V129.328H87.2571V135.84H87.7571ZM87.5071 129.078H86.1631V129.578H87.5071V129.078ZM85.9131 129.328V135.824H86.4131V129.328H85.9131ZM85.9131 135.824C85.9131 136.757 85.661 137.485 85.2054 137.978C84.7526 138.468 84.0693 138.758 83.1391 138.758V139.258C84.1768 139.258 85.0055 138.932 85.5727 138.318C86.1371 137.707 86.4131 136.843 86.4131 135.824H85.9131ZM83.1391 138.758C82.2089 138.758 81.5301 138.469 81.0814 137.979C80.6296 137.486 80.3811 136.758 80.3811 135.824H79.8811C79.8811 136.842 80.1525 137.706 80.7128 138.317C81.2761 138.931 82.1012 139.258 83.1391 139.258V138.758ZM80.3811 135.824V129.328H79.8811V135.824H80.3811ZM80.1311 129.078H78.7871V129.578H80.1311V129.078ZM78.5371 129.328V135.856H79.0371V129.328H78.5371ZM78.5371 135.856C78.5371 137.213 78.9183 138.367 79.703 139.181C80.4892 139.998 81.649 140.442 83.1391 140.442V139.942C81.7491 139.942 80.7329 139.53 80.0631 138.835C79.3918 138.137 79.0371 137.123 79.0371 135.856H78.5371ZM93.9738 140V140.25H94.2238V140H93.9738ZM93.9738 130.512V130.262H93.7238V130.512H93.9738ZM97.3658 130.512V130.762H97.6158V130.512H97.3658ZM97.3658 129.328H97.6158V129.078H97.3658V129.328ZM89.2698 129.328V129.078H89.0198V129.328H89.2698ZM89.2698 130.512H89.0198V130.762H89.2698V130.512ZM92.6458 130.512H92.8958V130.262H92.6458V130.512ZM92.6458 140H92.3958V140.25H92.6458V140ZM94.2238 140V130.512H93.7238V140H94.2238ZM93.9738 130.762H97.3658V130.262H93.9738V130.762ZM97.6158 130.512V129.328H97.1158V130.512H97.6158ZM97.3658 129.078H89.2698V129.578H97.3658V129.078ZM89.0198 129.328V130.512H89.5198V129.328H89.0198ZM89.2698 130.762H92.6458V130.262H89.2698V130.762ZM92.3958 130.512V140H92.8958V130.512H92.3958ZM92.6458 140.25H93.9738V139.75H92.6458V140.25ZM105.436 131.632L105.249 131.799L105.444 132.016L105.629 131.79L105.436 131.632ZM106.236 130.656L106.429 130.814L106.569 130.644L106.417 130.484L106.236 130.656ZM99.2439 137.472L99.4335 137.309L99.2347 137.078L99.0469 137.318L99.2439 137.472ZM98.4439 138.496L98.2469 138.342L98.1188 138.506L98.2569 138.662L98.4439 138.496ZM102.54 140.442C104.026 140.442 105.078 140.028 105.76 139.381C106.442 138.735 106.726 137.881 106.726 137.056H106.226C106.226 137.767 105.982 138.481 105.416 139.019C104.85 139.556 103.934 139.942 102.54 139.942V140.442ZM106.726 137.056C106.726 135.98 106.293 135.248 105.644 134.734C105.009 134.232 104.177 133.945 103.385 133.718C102.571 133.484 101.817 133.316 101.247 133.055C100.967 132.927 100.756 132.787 100.617 132.625C100.482 132.47 100.406 132.286 100.406 132.048H99.9059C99.9059 132.41 100.027 132.708 100.238 132.952C100.444 133.19 100.727 133.367 101.04 133.51C101.655 133.791 102.48 133.978 103.247 134.198C104.035 134.425 104.783 134.691 105.333 135.126C105.869 135.55 106.226 136.14 106.226 137.056H106.726ZM100.406 132.048C100.406 131.629 100.596 131.276 100.93 131.021C101.268 130.762 101.759 130.602 102.348 130.602V130.102C101.673 130.102 101.068 130.286 100.626 130.623C100.18 130.964 99.9059 131.459 99.9059 132.048H100.406ZM102.348 130.602C103.462 130.602 104.507 130.967 105.249 131.799L105.622 131.465C104.765 130.505 103.57 130.102 102.348 130.102V130.602ZM105.629 131.79L106.429 130.814L106.043 130.498L105.243 131.474L105.629 131.79ZM106.417 130.484C105.47 129.486 104.138 128.902 102.46 128.902V129.402C104.014 129.402 105.21 129.938 106.055 130.828L106.417 130.484ZM102.46 128.902C100.265 128.902 98.5299 130.18 98.5299 132.128H99.0299C99.0299 130.556 100.431 129.402 102.46 129.402V128.902ZM98.5299 132.128C98.5299 133.166 98.9678 133.856 99.6196 134.334C100.254 134.799 101.086 135.06 101.873 135.277C102.682 135.5 103.436 135.677 103.999 135.964C104.275 136.105 104.487 136.265 104.629 136.453C104.768 136.637 104.85 136.86 104.85 137.152H105.35C105.35 136.756 105.235 136.425 105.028 136.152C104.824 135.882 104.542 135.68 104.226 135.519C103.604 135.201 102.778 135.008 102.006 134.795C101.214 134.576 100.466 134.335 99.9153 133.931C99.3821 133.54 99.0299 132.994 99.0299 132.128H98.5299ZM104.85 137.152C104.85 137.508 104.72 137.902 104.388 138.208C104.057 138.515 103.496 138.758 102.588 138.758V139.258C103.584 139.258 104.279 138.989 104.728 138.576C105.176 138.162 105.35 137.628 105.35 137.152H104.85ZM102.588 138.758C101.17 138.758 100.083 138.065 99.4335 137.309L99.0544 137.635C99.7805 138.479 100.998 139.258 102.588 139.258V138.758ZM99.0469 137.318L98.2469 138.342L98.6409 138.65L99.4409 137.626L99.0469 137.318ZM98.2569 138.662C99.1866 139.71 100.632 140.442 102.54 140.442V139.942C100.768 139.942 99.4613 139.266 98.631 138.33L98.2569 138.662ZM113.323 140.442C116.626 140.442 118.885 137.949 118.885 134.672H118.385C118.385 137.699 116.324 139.942 113.323 139.942V140.442ZM118.885 134.672C118.885 131.395 116.626 128.902 113.323 128.902V129.402C116.324 129.402 118.385 131.645 118.385 134.672H118.885ZM113.323 128.902C110.019 128.902 107.777 131.396 107.777 134.672H108.277C108.277 131.644 110.323 129.402 113.323 129.402V128.902ZM107.777 134.672C107.777 137.948 110.019 140.442 113.323 140.442V139.942C110.323 139.942 108.277 137.7 108.277 134.672H107.777ZM113.323 138.758C112.192 138.758 111.281 138.323 110.651 137.605C110.017 136.884 109.653 135.862 109.653 134.672H109.153C109.153 135.962 109.549 137.108 110.275 137.935C111.004 138.765 112.054 139.258 113.323 139.258V138.758ZM109.653 134.672C109.653 133.474 110.018 132.452 110.651 131.733C111.281 131.018 112.191 130.586 113.323 130.586V130.086C112.055 130.086 111.005 130.574 110.275 131.403C109.548 132.228 109.153 133.374 109.153 134.672H109.653ZM113.323 130.586C114.446 130.586 115.361 131.018 115.998 131.734C116.637 132.453 117.009 133.475 117.009 134.672H117.509C117.509 133.373 117.105 132.227 116.372 131.402C115.637 130.574 114.584 130.086 113.323 130.086V130.586ZM117.009 134.672C117.009 135.861 116.637 136.883 115.998 137.604C115.361 138.323 114.446 138.758 113.323 138.758V139.258C114.584 139.258 115.637 138.765 116.372 137.936C117.105 137.109 117.509 135.963 117.509 134.672H117.009ZM129.413 129.328H129.663V129.078H129.413V129.328ZM128.069 129.328V129.078H127.819V129.328H128.069ZM122.037 129.328H122.287V129.078H122.037V129.328ZM120.693 129.328V129.078H120.443V129.328H120.693ZM125.045 140.442C126.542 140.442 127.706 140.002 128.495 139.186C129.282 138.37 129.663 137.213 129.663 135.84H129.163C129.163 137.123 128.808 138.142 128.135 138.838C127.464 139.534 126.444 139.942 125.045 139.942V140.442ZM129.663 135.84V129.328H129.163V135.84H129.663ZM129.413 129.078H128.069V129.578H129.413V129.078ZM127.819 129.328V135.824H128.319V129.328H127.819ZM127.819 135.824C127.819 136.757 127.567 137.485 127.112 137.978C126.659 138.468 125.976 138.758 125.045 138.758V139.258C126.083 139.258 126.912 138.932 127.479 138.318C128.043 137.707 128.319 136.843 128.319 135.824H127.819ZM125.045 138.758C124.115 138.758 123.436 138.469 122.988 137.979C122.536 137.486 122.287 136.758 122.287 135.824H121.787C121.787 136.842 122.059 137.706 122.619 138.317C123.182 138.931 124.007 139.258 125.045 139.258V138.758ZM122.287 135.824V129.328H121.787V135.824H122.287ZM122.037 129.078H120.693V129.578H122.037V129.078ZM120.443 129.328V135.856H120.943V129.328H120.443ZM120.443 135.856C120.443 137.213 120.825 138.367 121.609 139.181C122.395 139.998 123.555 140.442 125.045 140.442V139.942C123.655 139.942 122.639 139.53 121.969 138.835C121.298 138.137 120.943 137.123 120.943 135.856H120.443ZM139.656 140V140.25H140.121L139.865 139.862L139.656 140ZM136.776 135.648L136.754 135.399L136.336 135.436L136.568 135.786L136.776 135.648ZM131.912 129.328V129.078H131.662V129.328H131.912ZM131.912 140H131.662V140.25H131.912V140ZM133.24 140V140.25H133.49V140H133.24ZM133.24 135.76V135.51H132.99V135.76H133.24ZM135.384 135.76L135.595 135.626L135.521 135.51H135.384V135.76ZM138.088 140L137.877 140.134L137.951 140.25H138.088V140ZM133.24 134.592H132.99V134.842H133.24V134.592ZM133.24 130.512V130.262H132.99V130.512H133.24ZM139.865 139.862L136.985 135.51L136.568 135.786L139.448 140.138L139.865 139.862ZM136.798 135.897C137.578 135.828 138.331 135.511 138.892 134.944C139.455 134.374 139.81 133.565 139.81 132.544H139.31C139.31 133.443 139.001 134.122 138.536 134.592C138.069 135.065 137.43 135.34 136.754 135.399L136.798 135.897ZM139.81 132.544C139.81 131.497 139.434 130.625 138.783 130.016C138.134 129.408 137.229 129.078 136.2 129.078V129.578C137.123 129.578 137.898 129.872 138.441 130.38C138.982 130.887 139.31 131.623 139.31 132.544H139.81ZM136.2 129.078H131.912V129.578H136.2V129.078ZM131.662 129.328V140H132.162V129.328H131.662ZM131.912 140.25H133.24V139.75H131.912V140.25ZM133.49 140V135.76H132.99V140H133.49ZM133.24 136.01H135.384V135.51H133.24V136.01ZM135.173 135.894L137.877 140.134L138.299 139.866L135.595 135.626L135.173 135.894ZM138.088 140.25H139.656V139.75H138.088V140.25ZM136.04 134.342H133.24V134.842H136.04V134.342ZM133.49 134.592V130.512H132.99V134.592H133.49ZM133.24 130.762H136.04V130.262H133.24V130.762ZM136.04 130.762C136.618 130.762 137.09 130.948 137.415 131.254C137.738 131.559 137.934 131.999 137.934 132.544H138.434C138.434 131.873 138.19 131.297 137.757 130.89C137.327 130.484 136.726 130.262 136.04 130.262V130.762ZM137.934 132.544C137.934 133.081 137.739 133.526 137.413 133.837C137.087 134.15 136.615 134.342 136.04 134.342V134.842C136.729 134.842 137.329 134.61 137.759 134.199C138.19 133.786 138.434 133.207 138.434 132.544H137.934ZM150.782 138.064L150.984 138.211L151.152 137.98L150.901 137.844L150.782 138.064ZM149.662 137.456L149.781 137.236L149.582 137.128L149.455 137.316L149.662 137.456ZM149.662 131.888L149.454 132.027L149.583 132.22L149.785 132.106L149.662 131.888ZM150.766 131.264L150.889 131.482L151.128 131.346L150.971 131.121L150.766 131.264ZM146.718 140.442C148.702 140.442 150.051 139.494 150.984 138.211L150.58 137.917C149.721 139.098 148.51 139.942 146.718 139.942V140.442ZM150.901 137.844L149.781 137.236L149.543 137.676L150.663 138.284L150.901 137.844ZM149.455 137.316C148.892 138.146 147.847 138.758 146.718 138.758V139.258C148.021 139.258 149.217 138.558 149.869 137.596L149.455 137.316ZM146.718 138.758C144.53 138.758 142.856 137.072 142.856 134.672H142.356C142.356 137.328 144.234 139.258 146.718 139.258V138.758ZM142.856 134.672C142.856 132.241 144.529 130.586 146.718 130.586V130.086C144.235 130.086 142.356 131.983 142.356 134.672H142.856ZM146.718 130.586C147.849 130.586 148.892 131.183 149.454 132.027L149.87 131.749C149.216 130.769 148.019 130.086 146.718 130.086V130.586ZM149.785 132.106L150.889 131.482L150.643 131.046L149.539 131.67L149.785 132.106ZM150.971 131.121C150.083 129.848 148.699 128.902 146.718 128.902V129.402C148.513 129.402 149.753 130.248 150.561 131.407L150.971 131.121ZM146.718 128.902C143.512 128.902 140.98 131.25 140.98 134.672H141.48C141.48 131.534 143.78 129.402 146.718 129.402V128.902ZM140.98 134.672C140.98 138.094 143.512 140.442 146.718 140.442V139.942C143.78 139.942 141.48 137.81 141.48 134.672H140.98ZM153.803 140V140.25H154.053V140H153.803ZM153.803 129.328H154.053V129.078H153.803V129.328ZM152.475 129.328V129.078H152.225V129.328H152.475ZM152.475 140H152.225V140.25H152.475V140ZM154.053 140V129.328H153.553V140H154.053ZM153.803 129.078H152.475V129.578H153.803V129.078ZM152.225 129.328V140H152.725V129.328H152.225ZM152.475 140.25H153.803V139.75H152.475V140.25ZM165.135 140V140.25H165.385V140H165.135ZM165.135 129.328H165.385V129.078H165.135V129.328ZM163.807 129.328V129.078H163.557V129.328H163.807ZM163.807 137.664L163.605 137.812L164.057 138.425V137.664H163.807ZM157.663 129.328L157.864 129.18L157.789 129.078H157.663V129.328ZM156.303 129.328V129.078H156.053V129.328H156.303ZM156.303 140H156.053V140.25H156.303V140ZM157.631 140V140.25H157.881V140H157.631ZM157.631 131.488L157.832 131.34L157.381 130.723V131.488H157.631ZM163.855 140L163.653 140.148L163.728 140.25H163.855V140ZM165.385 140V129.328H164.885V140H165.385ZM165.135 129.078H163.807V129.578H165.135V129.078ZM163.557 129.328V137.664H164.057V129.328H163.557ZM164.008 137.516L157.864 129.18L157.461 129.476L163.605 137.812L164.008 137.516ZM157.663 129.078H156.303V129.578H157.663V129.078ZM156.053 129.328V140H156.553V129.328H156.053ZM156.303 140.25H157.631V139.75H156.303V140.25ZM157.881 140V131.488H157.381V140H157.881ZM157.429 131.636L163.653 140.148L164.056 139.852L157.832 131.34L157.429 131.636ZM163.855 140.25H165.135V139.75H163.855V140.25ZM176.879 138.352L177.066 138.518L177.129 138.447V138.352H176.879ZM176.879 134.512H177.129V134.262H176.879V134.512ZM171.887 134.512V134.262H171.637V134.512H171.887ZM171.887 135.696H171.637V135.946H171.887V135.696ZM175.567 135.696H175.817V135.446H175.567V135.696ZM175.567 137.856L175.744 138.033L175.817 137.96V137.856H175.567ZM175.775 131.808L175.577 131.961L175.717 132.141L175.909 132.019L175.775 131.808ZM176.831 131.136L176.965 131.347L177.201 131.197L177.025 130.979L176.831 131.136ZM172.687 140.458C174.505 140.458 176.028 139.689 177.066 138.518L176.692 138.186C175.745 139.255 174.357 139.958 172.687 139.958V140.458ZM177.129 138.352V134.512H176.629V138.352H177.129ZM176.879 134.262H171.887V134.762H176.879V134.262ZM171.637 134.512V135.696H172.137V134.512H171.637ZM171.887 135.946H175.567V135.446H171.887V135.946ZM175.317 135.696V137.856H175.817V135.696H175.317ZM175.39 137.679C174.886 138.184 173.891 138.758 172.687 138.758V139.258C174.043 139.258 175.16 138.616 175.744 138.033L175.39 137.679ZM172.687 138.758C170.499 138.758 168.825 137.072 168.825 134.672H168.325C168.325 137.328 170.203 139.258 172.687 139.258V138.758ZM168.825 134.672C168.825 132.241 170.498 130.586 172.687 130.586V130.086C170.204 130.086 168.325 131.983 168.325 134.672H168.825ZM172.687 130.586C173.889 130.586 174.952 131.158 175.577 131.961L175.972 131.655C175.253 130.73 174.045 130.086 172.687 130.086V130.586ZM175.909 132.019L176.965 131.347L176.697 130.925L175.641 131.597L175.909 132.019ZM177.025 130.979C176.057 129.777 174.677 128.902 172.687 128.902V129.402C174.504 129.402 175.748 130.191 176.636 131.293L177.025 130.979ZM172.687 128.902C169.516 128.902 166.949 131.199 166.949 134.672H167.449C167.449 131.489 169.778 129.402 172.687 129.402V128.902ZM166.949 134.672C166.949 138.127 169.514 140.458 172.687 140.458V139.958C169.78 139.958 167.449 137.841 167.449 134.672H166.949ZM85.3602 153.064L85.5624 153.211L85.7301 152.98L85.4795 152.844L85.3602 153.064ZM84.2402 152.456L84.3595 152.236L84.1605 152.128L84.0333 152.316L84.2402 152.456ZM84.2402 146.888L84.0322 147.027L84.161 147.22L84.3632 147.106L84.2402 146.888ZM85.3442 146.264L85.4672 146.482L85.7064 146.346L85.5492 146.121L85.3442 146.264ZM81.2962 155.442C83.2799 155.442 84.6294 154.494 85.5624 153.211L85.158 152.917C84.299 154.098 83.0885 154.942 81.2962 154.942V155.442ZM85.4795 152.844L84.3595 152.236L84.1209 152.676L85.2409 153.284L85.4795 152.844ZM84.0333 152.316C83.4696 153.146 82.4254 153.758 81.2962 153.758V154.258C82.5989 154.258 83.7948 153.558 84.4471 152.596L84.0333 152.316ZM81.2962 153.758C79.1082 153.758 77.4342 152.072 77.4342 149.672H76.9342C76.9342 152.328 78.8122 154.258 81.2962 154.258V153.758ZM77.4342 149.672C77.4342 147.241 79.107 145.586 81.2962 145.586V145.086C78.8134 145.086 76.9342 146.983 76.9342 149.672H77.4342ZM81.2962 145.586C82.4274 145.586 83.4699 146.183 84.0322 147.027L84.4482 146.749C83.7945 145.769 82.597 145.086 81.2962 145.086V145.586ZM84.3632 147.106L85.4672 146.482L85.2212 146.046L84.1172 146.67L84.3632 147.106ZM85.5492 146.121C84.6612 144.848 83.277 143.902 81.2962 143.902V144.402C83.0913 144.402 84.3311 145.248 85.1391 146.407L85.5492 146.121ZM81.2962 143.902C78.0905 143.902 75.5582 146.25 75.5582 149.672H76.0582C76.0582 146.534 78.3579 144.402 81.2962 144.402V143.902ZM75.5582 149.672C75.5582 153.094 78.0905 155.442 81.2962 155.442V154.942C78.3579 154.942 76.0582 152.81 76.0582 149.672H75.5582ZM91.9167 155.442C95.2193 155.442 97.4787 152.949 97.4787 149.672H96.9787C96.9787 152.699 94.918 154.942 91.9167 154.942V155.442ZM97.4787 149.672C97.4787 146.395 95.2193 143.902 91.9167 143.902V144.402C94.918 144.402 96.9787 146.645 96.9787 149.672H97.4787ZM91.9167 143.902C88.613 143.902 86.3707 146.396 86.3707 149.672H86.8707C86.8707 146.644 88.9163 144.402 91.9167 144.402V143.902ZM86.3707 149.672C86.3707 152.948 88.613 155.442 91.9167 155.442V154.942C88.9163 154.942 86.8707 152.7 86.8707 149.672H86.3707ZM91.9167 153.758C90.7857 153.758 89.8752 153.323 89.2445 152.605C88.6111 151.884 88.2467 150.862 88.2467 149.672H87.7467C87.7467 150.962 88.1423 152.108 88.8689 152.935C89.5982 153.765 90.6476 154.258 91.9167 154.258V153.758ZM88.2467 149.672C88.2467 148.474 88.6113 147.452 89.2443 146.733C89.8746 146.018 90.7851 145.586 91.9167 145.586V145.086C90.6483 145.086 89.5988 145.574 88.8691 146.403C88.1421 147.228 87.7467 148.374 87.7467 149.672H88.2467ZM91.9167 145.586C93.0401 145.586 93.9551 146.018 94.5918 146.734C95.2309 147.453 95.6027 148.475 95.6027 149.672H96.1027C96.1027 148.373 95.6985 147.227 94.9656 146.402C94.2303 145.574 93.1773 145.086 91.9167 145.086V145.586ZM95.6027 149.672C95.6027 150.861 95.2311 151.883 94.5916 152.604C93.9545 153.323 93.0394 153.758 91.9167 153.758V154.258C93.178 154.258 94.2308 153.765 94.9658 152.936C95.6983 152.109 96.1027 150.963 96.1027 149.672H95.6027ZM109.735 155V155.25H109.985V155H109.735ZM109.735 144.328H109.985V144.078H109.735V144.328ZM107.831 144.328V144.078H107.662L107.599 144.235L107.831 144.328ZM104.519 152.552L104.287 152.646L104.52 153.22L104.751 152.645L104.519 152.552ZM101.191 144.328L101.423 144.234L101.36 144.078H101.191V144.328ZM99.2871 144.328V144.078H99.0371V144.328H99.2871ZM99.2871 155H99.0371V155.25H99.2871V155ZM100.615 155V155.25H100.865V155H100.615ZM100.615 146.024L100.847 145.93L100.365 146.024H100.615ZM104.247 155L104.015 155.094L104.079 155.25H104.247V155ZM104.791 155V155.25H104.96L105.023 155.093L104.791 155ZM108.407 146.024H108.657L108.175 145.931L108.407 146.024ZM108.407 155H108.157V155.25H108.407V155ZM109.985 155V144.328H109.485V155H109.985ZM109.735 144.078H107.831V144.578H109.735V144.078ZM107.599 144.235L104.287 152.459L104.751 152.645L108.063 144.421L107.599 144.235ZM104.751 152.458L101.423 144.234L100.959 144.422L104.287 152.646L104.751 152.458ZM101.191 144.078H99.2871V144.578H101.191V144.078ZM99.0371 144.328V155H99.5371V144.328H99.0371ZM99.2871 155.25H100.615V154.75H99.2871V155.25ZM100.865 155V146.024H100.365V155H100.865ZM100.383 146.118L104.015 155.094L104.479 154.906L100.847 145.93L100.383 146.118ZM104.247 155.25H104.791V154.75H104.247V155.25ZM105.023 155.093L108.639 146.117L108.175 145.931L104.559 154.907L105.023 155.093ZM108.157 146.024V155H108.657V146.024H108.157ZM108.407 155.25H109.735V154.75H108.407V155.25ZM113.553 155V155.25H113.803V155H113.553ZM113.553 150.76V150.51H113.303V150.76H113.553ZM112.225 144.328V144.078H111.975V144.328H112.225ZM112.225 155H111.975V155.25H112.225V155ZM113.553 149.576H113.303V149.826H113.553V149.576ZM113.553 145.512V145.262H113.303V145.512H113.553ZM113.803 155V150.76H113.303V155H113.803ZM113.553 151.01H116.513V150.51H113.553V151.01ZM116.513 151.01C117.637 151.01 118.54 150.62 119.162 149.98C119.782 149.343 120.107 148.474 120.107 147.544H119.607C119.607 148.358 119.323 149.097 118.803 149.632C118.285 150.164 117.516 150.51 116.513 150.51V151.01ZM120.107 147.544C120.107 146.615 119.786 145.746 119.168 145.108C118.548 144.468 117.645 144.078 116.513 144.078V144.578C117.525 144.578 118.293 144.924 118.809 145.456C119.327 145.99 119.607 146.729 119.607 147.544H120.107ZM116.513 144.078H112.225V144.578H116.513V144.078ZM111.975 144.328V155H112.475V144.328H111.975ZM112.225 155.25H113.553V154.75H112.225V155.25ZM116.353 149.326H113.553V149.826H116.353V149.326ZM113.803 149.576V145.512H113.303V149.576H113.803ZM113.553 145.762H116.353V145.262H113.553V145.762ZM116.353 145.762C116.929 145.762 117.396 145.951 117.718 146.259C118.038 146.566 118.231 147.006 118.231 147.544H118.731C118.731 146.882 118.491 146.306 118.063 145.897C117.637 145.489 117.04 145.262 116.353 145.262V145.762ZM118.231 147.544C118.231 148.082 118.038 148.522 117.718 148.829C117.396 149.137 116.929 149.326 116.353 149.326V149.826C117.04 149.826 117.637 149.599 118.063 149.191C118.491 148.782 118.731 148.206 118.731 147.544H118.231ZM129.517 155V155.25H129.887L129.749 154.907L129.517 155ZM125.229 144.328L125.461 144.235L125.398 144.078H125.229V144.328ZM123.581 144.328V144.078H123.412L123.349 144.234L123.581 144.328ZM119.277 155L119.045 154.906L118.906 155.25H119.277V155ZM120.797 155V155.25H120.967L121.029 155.092L120.797 155ZM121.741 152.616V152.366H121.571L121.508 152.524L121.741 152.616ZM127.053 152.616L127.285 152.524L127.223 152.366H127.053V152.616ZM127.997 155L127.764 155.092L127.827 155.25H127.997V155ZM126.669 151.448V151.698H127.036L126.901 151.356L126.669 151.448ZM122.141 151.448L121.908 151.357L121.774 151.698H122.141V151.448ZM124.397 145.688L124.629 145.596L124.396 145.005L124.164 145.597L124.397 145.688ZM129.749 154.907L125.461 144.235L124.997 144.421L129.285 155.093L129.749 154.907ZM125.229 144.078H123.581V144.578H125.229V144.078ZM123.349 144.234L119.045 154.906L119.509 155.094L123.813 144.422L123.349 144.234ZM119.277 155.25H120.797V154.75H119.277V155.25ZM121.029 155.092L121.973 152.708L121.508 152.524L120.564 154.908L121.029 155.092ZM121.741 152.866H127.053V152.366H121.741V152.866ZM126.82 152.708L127.764 155.092L128.229 154.908L127.285 152.524L126.82 152.708ZM127.997 155.25H129.517V154.75H127.997V155.25ZM126.669 151.198H122.141V151.698H126.669V151.198ZM122.374 151.539L124.63 145.779L124.164 145.597L121.908 151.357L122.374 151.539ZM124.164 145.78L126.436 151.54L126.901 151.356L124.629 145.596L124.164 145.78ZM139.744 155V155.25H139.994V155H139.744ZM139.744 144.328H139.994V144.078H139.744V144.328ZM138.416 144.328V144.078H138.166V144.328H138.416ZM138.416 152.664L138.215 152.812L138.666 153.425V152.664H138.416ZM132.272 144.328L132.473 144.18L132.398 144.078H132.272V144.328ZM130.912 144.328V144.078H130.662V144.328H130.912ZM130.912 155H130.662V155.25H130.912V155ZM132.24 155V155.25H132.49V155H132.24ZM132.24 146.488L132.442 146.34L131.99 145.723V146.488H132.24ZM138.464 155L138.262 155.148L138.337 155.25H138.464V155ZM139.994 155V144.328H139.494V155H139.994ZM139.744 144.078H138.416V144.578H139.744V144.078ZM138.166 144.328V152.664H138.666V144.328H138.166ZM138.617 152.516L132.473 144.18L132.071 144.476L138.215 152.812L138.617 152.516ZM132.272 144.078H130.912V144.578H132.272V144.078ZM130.662 144.328V155H131.162V144.328H130.662ZM130.912 155.25H132.24V154.75H130.912V155.25ZM132.49 155V146.488H131.99V155H132.49ZM132.038 146.636L138.262 155.148L138.666 154.852L132.442 146.34L132.038 146.636ZM138.464 155.25H139.744V154.75H138.464V155.25ZM146.672 155V155.25H146.922V155H146.672ZM146.672 150.488L146.466 150.347L146.422 150.411V150.488H146.672ZM150.864 144.328L151.071 144.469L151.337 144.078H150.864V144.328ZM149.312 144.328V144.078H149.179L149.104 144.189L149.312 144.328ZM146 149.288L145.792 149.427L146 149.738L146.208 149.427L146 149.288ZM142.688 144.328L142.896 144.189L142.822 144.078H142.688V144.328ZM141.136 144.328V144.078H140.663L140.93 144.469L141.136 144.328ZM145.344 150.488H145.594V150.411L145.551 150.347L145.344 150.488ZM145.344 155H145.094V155.25H145.344V155ZM146.922 155V150.488H146.422V155H146.922ZM146.879 150.629L151.071 144.469L150.658 144.187L146.466 150.347L146.879 150.629ZM150.864 144.078H149.312V144.578H150.864V144.078ZM149.104 144.189L145.792 149.149L146.208 149.427L149.52 144.467L149.104 144.189ZM146.208 149.149L142.896 144.189L142.48 144.467L145.792 149.427L146.208 149.149ZM142.688 144.078H141.136V144.578H142.688V144.078ZM140.93 144.469L145.138 150.629L145.551 150.347L141.343 144.187L140.93 144.469ZM145.094 150.488V155H145.594V150.488H145.094ZM145.344 155.25H146.672V154.75H145.344V155.25Z" fill="black"/>
<path d="M112.765 68.6652C112.577 68.6652 112.577 68.4644 112.765 68.6652L111.827 68.0628L111.639 67.8621L89.5036 50.9968C89.5036 50.9968 89.3161 50.9968 89.3161 50.796L88.9409 50.3944L88.7533 50.1937H88.3781L82 45.375L94.5686 47.3828C95.1314 47.3828 95.319 47.5836 95.8817 47.7843C96.0693 47.7843 96.4445 47.9851 96.4445 47.9851C97.0073 48.1859 97.1949 48.3867 97.5701 48.5874C97.9453 48.7882 98.1328 48.989 98.508 49.1898C98.6956 49.3905 99.0708 49.5913 99.0708 49.7921C99.2584 49.9929 99.446 49.9929 99.6336 50.1937C100.009 50.3944 100.196 50.5952 100.196 50.796C100.759 51.3983 101.134 52.0006 101.697 52.4022L111.639 67.4605L111.827 67.6613L112.765 68.6652Z" fill="#18AAD1"/>
<path d="M112.765 91.9554L111.827 90.3492L111.639 90.1484L82.1875 45.375L88.5656 50.1937L89.6912 50.9968L111.827 67.8621H112.015L112.765 68.4644C112.765 68.4644 112.952 68.4644 112.952 68.6652L113.89 67.8621L143.717 45.375L113.703 90.3492L113.515 90.55L112.765 91.9554Z" fill="#2AD2FF"/>
<path d="M112.765 61.0373L111.827 59.4311L111.639 59.2303L104.323 48.3883L111.639 49.9945H111.827L112.765 50.1953L113.703 49.9945L120.831 48.1875L113.703 59.4311V59.6319L112.765 61.0373Z" fill="#18AAD1"/>
<path d="M143.905 45.1758L134.525 46.5812L130.961 47.1836C128.147 47.5851 125.521 49.1913 123.833 51.8014L113.89 67.0605L113.703 67.2613L112.765 68.6667L113.89 67.4621L114.078 67.2613L112.765 68.6667L138.09 49.3921L143.905 45.1758Z" fill="#18AAD1"/>
<path d="M117.455 13.4521C117.455 22.2862 103.198 26.9041 103.198 36.3406C103.01 38.5492 103.573 40.7577 104.511 42.7655C104.511 42.7655 99.0708 37.1437 99.0708 31.1204C99.0708 25.0971 104.323 16.0622 104.323 16.0622C104.323 20.0777 105.824 21.2824 107.325 21.4831H107.512C109.201 21.4831 110.139 20.0777 110.139 18.0699C110.139 16.0622 108.075 14.0544 108.075 10.0389C108.075 6.22409 112.577 0 112.577 0C115.766 4.01554 117.455 8.63341 117.455 13.4521Z" fill="#2AD2FF"/>
<path d="M113.515 45.5782C109.013 45.5782 105.636 41.7635 105.636 37.1456V36.9448C105.636 26.7052 118.955 25.7013 118.955 11.8477C119.331 12.45 122.895 17.6702 122.895 23.292C122.895 30.3192 116.704 32.1262 116.704 35.5394C116.704 36.9448 117.267 37.9487 119.143 37.9487C119.331 37.9487 119.518 37.9487 119.706 37.7479C123.27 36.1417 125.709 32.5277 125.896 28.3114C125.896 28.5122 127.772 45.5782 113.515 45.5782Z" fill="#2AD2FF"/>
<path d="M119.331 37.9487C119.518 37.9487 119.706 37.9487 119.893 37.7479C118.018 38.3503 111.077 40.1573 111.077 34.9371C111.077 28.5122 121.394 27.1067 121.394 21.6857C121.394 18.2725 120.644 14.8593 118.955 11.8477C119.331 12.45 122.895 17.6702 122.895 23.292C122.895 30.3192 116.704 32.1262 116.704 35.5394C116.892 36.9448 117.642 37.9487 119.331 37.9487Z" fill="#18AAD1"/>
<path d="M113.378 17.0661C113.378 22.0855 107.375 21.684 107 21.4832H107.563C109.251 21.4832 110.189 20.0778 110.189 18.07C110.189 16.0622 108.126 14.0544 108.126 10.0389C108.126 6.2241 112.628 0 112.628 0C111.127 2.61011 110.377 5.42099 110.189 8.23188C110.189 12.8498 113.378 13.2513 113.378 17.0661Z" fill="#18AAD1"/>
<path d="M110.162 105.018L105.824 101.93H111.148L112.923 96.3711L114.5 101.93H119.824L115.486 105.018L117.063 110.371L112.725 107.077L108.19 110.371L110.162 105.018Z" fill="#2AD2FF"/>
<path d="M133.338 105.022L129 101.934H134.324L136.099 96.375L137.676 101.934H143L138.662 105.022L140.239 110.375L135.901 107.081L131.366 110.375L133.338 105.022Z" fill="#2AD2FF"/>
<path d="M156.338 105.022L152 101.934H157.324L159.099 96.375L160.676 101.934H166L161.662 105.022L163.239 110.375L158.901 107.081L154.366 110.375L156.338 105.022Z" fill="#2AD2FF"/>
<path d="M86.338 105.022L82 101.934H87.3239L89.0986 96.375L90.6761 101.934H96L91.662 105.022L93.2394 110.375L88.9014 107.081L84.5634 110.375L86.338 105.022Z" fill="#2AD2FF"/>
<path d="M63.338 105.022L59 101.934H64.3239L66.0986 96.375L67.6761 101.934H73L68.662 105.022L70.2394 110.375L65.9014 107.081L61.5634 110.375L63.338 105.022Z" fill="#2AD2FF"/>
<path d="M168.1 160.102H58.7998V178.302H168.1V160.102Z" fill="#0460B5"/>
<path d="M67.2 151H45L49.6 160.1L45 169.2H57.3L57.4 159.3L67.2 151Z" fill="#0460B5"/>
<path d="M159.8 151H181.9L177.3 160.1L181.9 169.2H169.6V159.3L159.8 151Z" fill="#0460B5"/>
<path d="M69.8998 165.998C70.4998 166.298 70.9998 166.798 71.2998 167.298C71.5998 167.898 71.7998 168.598 71.7998 169.198C71.7998 169.898 71.5998 170.498 71.2998 171.098C70.9998 171.698 70.4998 172.098 69.8998 172.398C69.2998 172.698 68.5998 172.898 67.8998 172.898H64.7998V165.398H67.8998C68.5998 165.498 69.2998 165.598 69.8998 165.998ZM69.1998 171.398C69.5998 171.198 69.8998 170.898 70.0998 170.498C70.4998 169.698 70.4998 168.698 70.0998 167.898C69.8998 167.498 69.5998 167.198 69.1998 166.998C68.7998 166.798 68.3998 166.698 67.8998 166.698H66.1998V171.698H67.8998C68.2998 171.698 68.7998 171.598 69.1998 171.398Z" fill="white"/>
<path d="M73 165.5H78.5V166.7H74.5V168.6H78.1V169.8H74.5V171.7H78.7V172.9H73V165.5Z" fill="white"/>
<path d="M83.6998 166.9C83.3998 166.8 82.9998 166.7 82.5998 166.7C82.2998 166.7 81.9998 166.8 81.7998 166.9C81.5998 167 81.4998 167.2 81.4998 167.4C81.4998 167.6 81.5998 167.8 81.6998 167.9C81.7998 168 81.9998 168.2 82.1998 168.2C82.4998 168.3 82.7998 168.4 83.0998 168.5C83.4998 168.6 83.8998 168.8 84.2998 168.9C84.5998 169.1 84.8998 169.3 85.0998 169.6C85.2998 169.9 85.4998 170.3 85.3998 170.8C85.3998 171.2 85.2998 171.7 84.9998 172C84.6998 172.3 84.3998 172.6 83.9998 172.8C83.4998 173 82.9998 173.1 82.4998 173.1C81.8998 173.1 81.2998 173 80.7998 172.8C80.2998 172.6 79.7998 172.3 79.2998 171.9L79.8998 170.7C80.2998 171 80.6998 171.3 81.1998 171.5C81.5998 171.7 82.0998 171.8 82.4998 171.8C82.7998 171.8 83.1998 171.7 83.3998 171.6C83.7998 171.4 83.7998 170.9 83.5998 170.5L83.4998 170.4C83.2998 170.3 83.1998 170.1 82.9998 170.1C82.7998 170 82.4998 169.9 82.0998 169.8C81.6998 169.7 81.2998 169.5 80.8998 169.4C80.5998 169.3 80.2998 169 80.0998 168.8C79.8998 168.5 79.6998 168.1 79.7998 167.7C79.7998 167.3 79.8998 166.9 80.0998 166.6C80.3998 166.3 80.6998 166 81.0998 165.8C81.5998 165.6 82.0998 165.5 82.5998 165.5C83.0998 165.5 83.5998 165.6 83.9998 165.7C84.3998 165.8 84.8998 166 85.2998 166.3L84.6998 167.5C84.4998 167.2 84.0998 167 83.6998 166.9Z" fill="white"/>
<path d="M86.8999 165.5H88.2999V173H86.8999V165.5Z" fill="white"/>
<path d="M95.2 169.198H96.4V172.098C96 172.398 95.5 172.598 95 172.798C94.5 172.998 94 173.098 93.4 173.098C92.7 173.098 92 172.898 91.4 172.598C90.8 172.298 90.3 171.798 90 171.198C89.6 170.598 89.5 169.898 89.5 169.198C89.5 168.498 89.7 167.798 90 167.298C90.4 166.698 90.9 166.198 91.5 165.898C92.1 165.598 92.8 165.398 93.5 165.398C94 165.398 94.6 165.498 95.1 165.698C95.6 165.898 96.1 166.098 96.4 166.498L95.6 167.598C95.3 167.298 95 167.098 94.6 166.998C94.2 166.898 93.9 166.798 93.5 166.798C93 166.798 92.6 166.898 92.2 167.098C91 167.798 90.6 169.398 91.3 170.598C91.8 171.398 92.6 171.898 93.5 171.898C93.8 171.898 94 171.898 94.3 171.798C94.6 171.698 94.9 171.598 95.1 171.398L95.2 169.198Z" fill="white"/>
<path d="M103.4 165.5H104.8V173H103.5L99.6002 167.8V173H98.2002V165.5H99.6002L103.5 170.7L103.4 165.5Z" fill="white"/>
<path d="M111.3 173L110 170.8H108V173H106.6V165.5H109.7C110.5 165.4 111.3 165.7 112 166.1C112.5 166.6 112.8 167.3 112.8 168C112.8 168.5 112.7 169 112.4 169.5C112.1 169.9 111.7 170.2 111.3 170.4L113 172.9L111.3 173ZM108 169.5H109.7C110.2 169.5 110.6 169.4 111 169.1C111.3 168.8 111.4 168.5 111.4 168.1C111.4 167.7 111.3 167.3 111 167.1C110.6 166.9 110.2 166.7 109.8 166.8H108V169.5Z" fill="white"/>
<path d="M116.1 171.3C116.5 171.6 117 171.8 117.4 171.8C117.9 171.8 118.4 171.6 118.7 171.3C119 170.9 119.2 170.4 119.2 169.9V165.5H120.6V169.9C120.6 170.5 120.5 171.1 120.2 171.6C119.9 172.1 119.5 172.5 119.1 172.7C118.6 173 118 173.1 117.4 173.1C116.8 173.1 116.2 173 115.6 172.7C115.1 172.5 114.7 172.1 114.5 171.6C114.2 171.1 114.1 170.5 114.1 169.9V165.5H115.5V169.9C115.6 170.4 115.8 170.9 116.1 171.3Z" fill="white"/>
<path d="M126 166.9C125.7 166.8 125.3 166.7 124.9 166.7C124.6 166.7 124.3 166.8 124.1 166.9C123.9 167 123.8 167.2 123.8 167.4C123.8 167.6 123.9 167.8 124 167.9C124.1 168 124.3 168.2 124.5 168.2C124.8 168.3 125.1 168.4 125.4 168.5C125.8 168.6 126.2 168.8 126.6 168.9C126.9 169.1 127.2 169.3 127.4 169.6C127.6 169.9 127.8 170.3 127.7 170.8C127.7 171.2 127.6 171.7 127.3 172C127 172.3 126.7 172.6 126.3 172.8C125.8 173 125.3 173.1 124.8 173.1C124.2 173.1 123.6 173 123.1 172.8C122.6 172.6 122.1 172.3 121.6 171.9L122.2 170.7C122.6 171 123 171.3 123.5 171.5C123.9 171.7 124.4 171.8 124.8 171.8C125.1 171.8 125.5 171.7 125.7 171.6C126.1 171.4 126.1 170.9 125.9 170.5L125.8 170.4C125.6 170.3 125.5 170.1 125.3 170.1C125.1 170 124.8 169.9 124.4 169.8C124 169.7 123.6 169.5 123.2 169.4C122.9 169.3 122.6 169 122.4 168.8C122.2 168.5 122 168.1 122.1 167.7C122.1 167.3 122.2 166.9 122.4 166.6C122.7 166.3 123 166 123.4 165.8C123.9 165.6 124.4 165.5 124.9 165.5C125.4 165.5 125.9 165.6 126.3 165.7C126.7 165.8 127.2 166 127.6 166.3L127 167.5C126.8 167.2 126.4 167 126 166.9Z" fill="white"/>
<path d="M129.2 165.5H130.6V168.7H134.3V165.5H135.7V173H134.3V170H130.6V173H129.2V165.5Z" fill="white"/>
<path d="M138.4 171.7C138.5 171.8 138.6 172 138.6 172.3C138.6 172.5 138.5 172.7 138.4 172.9C138.3 173 138.1 173.1 137.9 173.1C137.7 173.1 137.5 173 137.4 172.9C137.3 172.7 137.2 172.5 137.2 172.3C137.2 172.1 137.3 171.9 137.4 171.7C137.5 171.6 137.7 171.5 137.9 171.5C138.1 171.5 138.3 171.6 138.4 171.7Z" fill="white"/>
<path d="M142.4 168.399C142 168.399 141.6 168.599 141.3 168.899C141 169.199 140.9 169.699 140.9 170.099C140.9 170.599 141 170.999 141.3 171.299C141.6 171.599 142 171.799 142.4 171.799C143 171.799 143.6 171.599 143.9 171.099L144.8 171.799C144.5 172.199 144.2 172.499 143.8 172.699C143.3 172.899 142.8 172.999 142.3 172.999C141.8 172.999 141.3 172.899 140.8 172.599C140.4 172.399 140 171.999 139.8 171.599C139.3 170.699 139.3 169.499 139.8 168.599C140 168.199 140.4 167.799 140.8 167.599C141.3 167.399 141.8 167.199 142.3 167.199C142.8 167.199 143.3 167.299 143.7 167.499C144.1 167.699 144.4 167.899 144.7 168.299L143.9 169.099C143.6 168.699 143 168.399 142.4 168.399Z" fill="white"/>
<path d="M149.9 167.599C150.3 167.799 150.7 168.199 151 168.599C151.3 169.099 151.4 169.599 151.4 170.099C151.4 170.599 151.3 171.199 151 171.599C150.7 171.999 150.4 172.399 149.9 172.599C149.4 172.799 148.9 172.999 148.3 172.999C147.7 172.999 147.2 172.899 146.7 172.599C146.3 172.399 145.9 171.999 145.6 171.599C145.3 171.099 145.2 170.599 145.2 170.099C145.2 169.599 145.3 168.999 145.6 168.599C145.9 168.199 146.2 167.799 146.7 167.599C147.2 167.299 147.7 167.199 148.3 167.199C148.9 167.199 149.4 167.299 149.9 167.599ZM147.2 168.899C146.6 169.599 146.6 170.699 147.2 171.399C147.5 171.699 147.9 171.899 148.4 171.899C148.8 171.899 149.3 171.699 149.6 171.399C150.2 170.699 150.2 169.599 149.6 168.899C149.3 168.599 148.9 168.399 148.4 168.399C147.9 168.399 147.5 168.499 147.2 168.899Z" fill="white"/>
<path d="M161.6 167.802C162 168.202 162.2 168.802 162.2 169.402V173.002H160.8V169.802C160.8 169.402 160.7 169.102 160.5 168.802C160.3 168.602 159.9 168.402 159.6 168.402C159.2 168.402 158.8 168.602 158.5 168.902C158.2 169.202 158.1 169.602 158.1 170.102V172.902H156.7V169.802C156.7 169.402 156.6 169.102 156.4 168.802C156.2 168.602 155.8 168.402 155.5 168.402C155.1 168.402 154.7 168.602 154.4 168.902C154.1 169.202 154 169.702 154.1 170.102V172.902H152.7V167.202H154.1V168.302C154.8 167.202 156.3 166.902 157.4 167.502C157.7 167.702 158 168.102 158.1 168.502C158.4 167.602 159.3 167.102 160.2 167.102C160.7 167.102 161.2 167.402 161.6 167.802Z" fill="white"/>
<path d="M104.888 193V192.112H100.964C103.196 190.348 104.852 188.86 104.852 187.228C104.852 185.632 103.496 184.876 102.164 184.876C101.036 184.876 99.9921 185.32 99.3801 186.136L99.9921 186.772C100.46 186.172 101.204 185.764 102.164 185.764C102.992 185.764 103.844 186.196 103.844 187.228C103.844 188.608 102.272 189.94 99.3921 192.196V193H104.888ZM109.471 193.144C111.655 193.144 112.531 190.948 112.531 189.004C112.531 187.048 111.655 184.876 109.471 184.876C107.275 184.876 106.411 187.048 106.411 189.004C106.411 190.948 107.275 193.144 109.471 193.144ZM109.471 192.256C107.947 192.256 107.431 190.6 107.431 189.004C107.431 187.408 107.947 185.764 109.471 185.764C110.995 185.764 111.511 187.408 111.511 189.004C111.511 190.6 110.995 192.256 109.471 192.256ZM119.29 193V192.112H115.366C117.598 190.348 119.254 188.86 119.254 187.228C119.254 185.632 117.898 184.876 116.566 184.876C115.438 184.876 114.394 185.32 113.782 186.136L114.394 186.772C114.862 186.172 115.606 185.764 116.566 185.764C117.394 185.764 118.246 186.196 118.246 187.228C118.246 188.608 116.674 189.94 113.794 192.196V193H119.29ZM126.345 193V192.112H122.421C124.653 190.348 126.309 188.86 126.309 187.228C126.309 185.632 124.953 184.876 123.621 184.876C122.493 184.876 121.449 185.32 120.837 186.136L121.449 186.772C121.917 186.172 122.661 185.764 123.621 185.764C124.449 185.764 125.301 186.196 125.301 187.228C125.301 188.608 123.729 189.94 120.849 192.196V193H126.345Z" fill="black"/>
<path d="M104.888 193V193.25H105.138V193H104.888ZM104.888 192.112H105.138V191.862H104.888V192.112ZM100.964 192.112L100.809 191.916L100.245 192.362H100.964V192.112ZM99.3801 186.136L99.1801 185.986L99.0526 186.156L99.2 186.309L99.3801 186.136ZM99.9921 186.772L99.812 186.945L100.012 187.153L100.189 186.926L99.9921 186.772ZM99.3921 192.196L99.238 191.999L99.1421 192.074V192.196H99.3921ZM99.3921 193H99.1421V193.25H99.3921V193ZM105.138 193V192.112H104.638V193H105.138ZM104.888 191.862H100.964V192.362H104.888V191.862ZM101.119 192.308C102.235 191.427 103.224 190.601 103.934 189.785C104.643 188.969 105.102 188.132 105.102 187.228H104.602C104.602 187.956 104.233 188.679 103.557 189.456C102.881 190.233 101.926 191.033 100.809 191.916L101.119 192.308ZM105.102 187.228C105.102 186.35 104.725 185.69 104.16 185.255C103.602 184.827 102.874 184.626 102.164 184.626V185.126C102.787 185.126 103.402 185.303 103.855 185.652C104.301 185.994 104.602 186.51 104.602 187.228H105.102ZM102.164 184.626C100.975 184.626 99.8489 185.094 99.1801 185.986L99.5801 186.286C100.135 185.546 101.097 185.126 102.164 185.126V184.626ZM99.2 186.309L99.812 186.945L100.172 186.599L99.5603 185.963L99.2 186.309ZM100.189 186.926C100.609 186.387 101.28 186.014 102.164 186.014V185.514C101.128 185.514 100.311 185.957 99.795 186.618L100.189 186.926ZM102.164 186.014C102.539 186.014 102.902 186.113 103.165 186.309C103.418 186.499 103.594 186.791 103.594 187.228H104.094C104.094 186.633 103.844 186.193 103.464 185.909C103.094 185.631 102.617 185.514 102.164 185.514V186.014ZM103.594 187.228C103.594 187.818 103.259 188.435 102.517 189.211C101.779 189.983 100.681 190.869 99.238 191.999L99.5463 192.393C100.983 191.267 102.111 190.359 102.879 189.556C103.643 188.757 104.094 188.018 104.094 187.228H103.594ZM99.1421 192.196V193H99.6421V192.196H99.1421ZM99.3921 193.25H104.888V192.75H99.3921V193.25ZM109.471 193.394C110.663 193.394 111.502 192.788 112.032 191.935C112.556 191.092 112.781 190.008 112.781 189.004H112.281C112.281 189.944 112.068 190.93 111.607 191.671C111.153 192.402 110.462 192.894 109.471 192.894V193.394ZM112.781 189.004C112.781 187.994 112.556 186.912 112.032 186.074C111.502 185.225 110.662 184.626 109.471 184.626V185.126C110.464 185.126 111.154 185.613 111.608 186.339C112.068 187.076 112.281 188.058 112.281 189.004H112.781ZM109.471 184.626C108.274 184.626 107.434 185.225 106.905 186.074C106.383 186.913 106.161 187.995 106.161 189.004H106.661C106.661 188.057 106.871 187.075 107.33 186.339C107.781 185.613 108.472 185.126 109.471 185.126V184.626ZM106.161 189.004C106.161 190.007 106.383 191.092 106.905 191.935C107.433 192.788 108.273 193.394 109.471 193.394V192.894C108.473 192.894 107.782 192.402 107.33 191.671C106.871 190.93 106.661 189.945 106.661 189.004H106.161ZM109.471 192.006C108.823 192.006 108.388 191.664 108.101 191.113C107.808 190.549 107.681 189.782 107.681 189.004H107.181C107.181 189.822 107.312 190.681 107.658 191.344C108.01 192.02 108.595 192.506 109.471 192.506V192.006ZM107.681 189.004C107.681 188.226 107.808 187.462 108.101 186.901C108.387 186.354 108.822 186.014 109.471 186.014V185.514C108.596 185.514 108.01 185.996 107.658 186.67C107.312 187.33 107.181 188.186 107.181 189.004H107.681ZM109.471 186.014C110.12 186.014 110.554 186.354 110.841 186.901C111.134 187.462 111.261 188.226 111.261 189.004H111.761C111.761 188.186 111.63 187.33 111.284 186.67C110.931 185.996 110.346 185.514 109.471 185.514V186.014ZM111.261 189.004C111.261 189.782 111.134 190.549 110.841 191.113C110.554 191.664 110.119 192.006 109.471 192.006V192.506C110.347 192.506 110.932 192.02 111.284 191.344C111.63 190.681 111.761 189.822 111.761 189.004H111.261ZM119.29 193V193.25H119.54V193H119.29ZM119.29 192.112H119.54V191.862H119.29V192.112ZM115.366 192.112L115.211 191.916L114.647 192.362H115.366V192.112ZM113.782 186.136L113.582 185.986L113.455 186.156L113.602 186.309L113.782 186.136ZM114.394 186.772L114.214 186.945L114.414 187.153L114.592 186.926L114.394 186.772ZM113.794 192.196L113.64 191.999L113.544 192.074V192.196H113.794ZM113.794 193H113.544V193.25H113.794V193ZM119.54 193V192.112H119.04V193H119.54ZM119.29 191.862H115.366V192.362H119.29V191.862ZM115.521 192.308C116.637 191.427 117.626 190.601 118.336 189.785C119.045 188.969 119.504 188.132 119.504 187.228H119.004C119.004 187.956 118.636 188.679 117.959 189.456C117.283 190.233 116.328 191.033 115.211 191.916L115.521 192.308ZM119.504 187.228C119.504 186.35 119.127 185.69 118.562 185.255C118.005 184.827 117.276 184.626 116.566 184.626V185.126C117.189 185.126 117.804 185.303 118.258 185.652C118.704 185.994 119.004 186.51 119.004 187.228H119.504ZM116.566 184.626C115.377 184.626 114.251 185.094 113.582 185.986L113.982 186.286C114.538 185.546 115.5 185.126 116.566 185.126V184.626ZM113.602 186.309L114.214 186.945L114.575 186.599L113.963 185.963L113.602 186.309ZM114.592 186.926C115.012 186.387 115.683 186.014 116.566 186.014V185.514C115.53 185.514 114.713 185.957 114.197 186.618L114.592 186.926ZM116.566 186.014C116.942 186.014 117.305 186.113 117.567 186.309C117.82 186.499 117.996 186.791 117.996 187.228H118.496C118.496 186.633 118.246 186.193 117.867 185.909C117.496 185.631 117.019 185.514 116.566 185.514V186.014ZM117.996 187.228C117.996 187.818 117.661 188.435 116.92 189.211C116.181 189.983 115.083 190.869 113.64 191.999L113.949 192.393C115.385 191.267 116.513 190.359 117.281 189.556C118.046 188.757 118.496 188.018 118.496 187.228H117.996ZM113.544 192.196V193H114.044V192.196H113.544ZM113.794 193.25H119.29V192.75H113.794V193.25ZM126.345 193V193.25H126.595V193H126.345ZM126.345 192.112H126.595V191.862H126.345V192.112ZM122.421 192.112L122.266 191.916L121.702 192.362H122.421V192.112ZM120.837 186.136L120.637 185.986L120.51 186.156L120.657 186.309L120.837 186.136ZM121.449 186.772L121.269 186.945L121.469 187.153L121.646 186.926L121.449 186.772ZM120.849 192.196L120.695 191.999L120.599 192.074V192.196H120.849ZM120.849 193H120.599V193.25H120.849V193ZM126.595 193V192.112H126.095V193H126.595ZM126.345 191.862H122.421V192.362H126.345V191.862ZM122.576 192.308C123.692 191.427 124.681 190.601 125.391 189.785C126.1 188.969 126.559 188.132 126.559 187.228H126.059C126.059 187.956 125.69 188.679 125.014 189.456C124.338 190.233 123.383 191.033 122.266 191.916L122.576 192.308ZM126.559 187.228C126.559 186.35 126.182 185.69 125.617 185.255C125.059 184.827 124.331 184.626 123.621 184.626V185.126C124.244 185.126 124.859 185.303 125.312 185.652C125.758 185.994 126.059 186.51 126.059 187.228H126.559ZM123.621 184.626C122.432 184.626 121.306 185.094 120.637 185.986L121.037 186.286C121.592 185.546 122.554 185.126 123.621 185.126V184.626ZM120.657 186.309L121.269 186.945L121.629 186.599L121.017 185.963L120.657 186.309ZM121.646 186.926C122.066 186.387 122.737 186.014 123.621 186.014V185.514C122.585 185.514 121.768 185.957 121.252 186.618L121.646 186.926ZM123.621 186.014C123.996 186.014 124.359 186.113 124.622 186.309C124.875 186.499 125.051 186.791 125.051 187.228H125.551C125.551 186.633 125.301 186.193 124.922 185.909C124.551 185.631 124.074 185.514 123.621 185.514V186.014ZM125.051 187.228C125.051 187.818 124.716 188.435 123.974 189.211C123.236 189.983 122.138 190.869 120.695 191.999L121.003 192.393C122.44 191.267 123.568 190.359 124.336 189.556C125.1 188.757 125.551 188.018 125.551 187.228H125.051ZM120.599 192.196V193H121.099V192.196H120.599ZM120.849 193.25H126.345V192.75H120.849V193.25Z" fill="black"/>
<line x1="77" y1="189.5" x2="92" y2="189.5" stroke="black"/>
<line x1="134" y1="189.5" x2="149" y2="189.5" stroke="black"/>
</svg>
