<svg width="852" height="252" viewBox="0 0 852 252" fill="none" xmlns="http://www.w3.org/2000/svg">
<path opacity="0.16" fill-rule="evenodd" clip-rule="evenodd" d="M241.187 0.307005C255.391 -1.69495 269.2 6.23474 275.451 19.9829C289.688 51.2971 309.308 85.3687 332.642 113.944C356.232 142.833 381.722 163.79 407.25 172.799C431.155 181.234 457.348 180.117 487.229 160.144C518.572 139.193 555.149 96.5601 594.122 18.7475C600.357 6.29936 612.923 -1.01868 626.114 0.116224C639.305 1.25112 650.609 10.6227 654.891 23.9757C657.274 31.4047 659.446 38.6449 661.564 45.7043C670.181 74.4218 677.899 100.145 695.218 123.391C714.57 149.368 748.788 174.622 821.507 181.054C839.802 182.673 853.402 199.799 851.884 219.307C850.367 238.816 834.306 253.318 816.012 251.7C729.079 244.011 676.253 211.897 643.167 167.486C631.474 151.792 622.61 134.781 615.611 118.151C585.443 165.362 554.424 198.893 522.537 220.207C475.945 251.35 429.159 255.198 386.366 240.098C345.195 225.57 310.267 194.491 282.507 160.496C271.935 147.549 262.126 133.841 253.139 119.876C231.72 163.135 201.234 193.766 168.403 214.456C119.773 245.103 66.8789 253.524 31.6984 251.783C13.3609 250.876 -0.81467 234.288 0.0364026 214.734C0.887477 195.18 16.4429 180.064 34.7804 180.971C59.0446 182.172 98.7149 176.031 134.581 153.428C169.237 131.588 201.226 93.9717 212.893 28.7997C215.579 13.792 226.982 2.30896 241.187 0.307005Z" fill="#2584F4"/>
</svg>
